# MagicaVoxel @ Ephtracy

# group
o 

# material
mtllib bush1.mtl
usemtl palette

# normals
vn -1 0 0
vn 1 0 0
vn 0 0 1
vn 0 0 -1
vn 0 -1 0
vn 0 1 0

# texcoords
vt 0.177734 0.5
vt 0.224609 0.5
vt 0.583984 0.5

# verts
v 0 2.7 -0.3
v 0 2.7 -0.7
v 0 3.1 -0.3
v 0 3.1 -0.7
v 0.1 2.9 -0.1
v 0.1 2.9 -0.3
v 0.1 3.1 -0.1
v 0.1 3.1 -0.3
v 0.2 2.5 -0.4
v 0.2 2.5 -0.6
v 0.2 2.7 -0.4
v 0.2 2.7 -0.6
v 0.2 2.8 -0.7
v 0.2 2.8 -0.8
v 0.2 3 -0.7
v 0.2 3 -0.8
v 0.2 3.1 -0.3
v 0.2 3.1 -0.5
v 0.2 3.3 -0.3
v 0.2 3.3 -0.5
v 0.3 2 -0.4
v 0.3 2 -0.6
v 0.3 2.1 -0.4
v 0.3 2.1 -0.6
v 0.3 2.4 -0.4
v 0.3 2.4 -0.6
v 0.3 2.5 -0.4
v 0.3 2.5 -0.6
v 0.4 2 -0.3
v 0.4 2 -0.4
v 0.4 2 -0.6
v 0.4 2 -0.7
v 0.4 2.1 -0.3
v 0.4 2.1 -0.4
v 0.4 2.1 -0.6
v 0.4 2.1 -0.7
v 0.4 2.2 -0.4
v 0.4 2.2 -0.6
v 0.4 2.4 -0.2
v 0.4 2.4 -0.4
v 0.4 2.5 -0.7
v 0.4 2.5 -0.9
v 0.4 2.6 -0.1
v 0.4 2.6 -0.2
v 0.4 2.6 -0.6
v 0.4 2.6 -0.7
v 0.4 2.7 -0.3
v 0.4 2.7 -0.4
v 0.4 2.7 -0.6
v 0.4 2.7 -0.7
v 0.4 2.7 -0.9
v 0.4 2.7 -1
v 0.4 2.8 -0.1
v 0.4 2.8 -0.3
v 0.4 2.8 -0.7
v 0.4 2.8 -0.8
v 0.4 3 -0.7
v 0.4 3 -0.8
v 0.4 3 -1
v 0.4 3.1 -0.5
v 0.4 3.1 -0.7
v 0.4 3.3 -0.3
v 0.4 3.3 -0.5
v 0.4 3.3 -0.8
v 0.4 3.5 -0.3
v 0.4 3.5 -0.5
v 0.5 2 -0.2
v 0.5 2 -0.3
v 0.5 2 -0.7
v 0.5 2 -0.8
v 0.5 2.1 -0.2
v 0.5 2.1 -0.3
v 0.5 2.1 -0.4
v 0.5 2.1 -0.6
v 0.5 2.1 -0.7
v 0.5 2.1 -0.8
v 0.5 2.2 -0.3
v 0.5 2.2 -0.4
v 0.5 2.2 -0.6
v 0.5 2.2 -0.7
v 0.5 2.4 -0.4
v 0.5 2.4 -0.6
v 0.5 2.8 0
v 0.5 2.8 -0.1
v 0.5 2.8 -0.3
v 0.5 2.9 -0.1
v 0.5 2.9 -0.3
v 0.5 3.1 0
v 0.5 3.1 -0.1
v 0.6 2.4 -0.6
v 0.6 2.4 -0.8
v 0.6 2.5 -0.7
v 0.6 2.5 -0.8
v 0.6 2.6 -0.6
v 0.6 2.6 -0.7
v 0.6 3.1 -0.1
v 0.6 3.1 -0.3
v 0.6 3.2 -0.1
v 0.6 3.2 -0.3
v 0.7 3 -0.8
v 0.7 3 -0.9
v 0.7 3.1 -0.8
v 0.7 3.1 -0.9
v 0.8 3.1 0
v 0.8 3.1 -0.1
v 0.8 3.2 0
v 0.8 3.2 -0.1
v 0.6 2.4 -0.2
v 0.6 2.4 -0.4
v 0.6 2.5 -0.8
v 0.6 2.5 -0.9
v 0.6 2.6 -0.1
v 0.6 2.6 -0.2
v 0.6 2.6 -0.3
v 0.6 2.6 -0.4
v 0.6 2.6 -0.7
v 0.6 2.6 -0.8
v 0.6 2.7 -0.7
v 0.6 2.7 -0.9
v 0.6 2.8 -0.1
v 0.6 2.8 -0.3
v 0.6 3.4 -0.3
v 0.6 3.4 -0.5
v 0.6 3.5 -0.3
v 0.6 3.5 -0.5
v 0.7 2 -0.2
v 0.7 2 -0.3
v 0.7 2 -0.7
v 0.7 2 -0.8
v 0.7 2.1 -0.2
v 0.7 2.1 -0.3
v 0.7 2.1 -0.4
v 0.7 2.1 -0.6
v 0.7 2.1 -0.7
v 0.7 2.1 -0.8
v 0.7 2.2 -0.3
v 0.7 2.2 -0.4
v 0.7 2.2 -0.6
v 0.7 2.2 -0.7
v 0.7 2.4 -0.4
v 0.7 2.4 -0.6
v 0.7 2.7 -0.7
v 0.7 2.7 -1
v 0.7 2.8 -0.7
v 0.7 2.8 -0.9
v 0.7 3 -0.9
v 0.7 3 -1
v 0.7 3.1 -0.7
v 0.7 3.1 -0.8
v 0.7 3.2 -0.6
v 0.7 3.2 -0.7
v 0.7 3.3 -0.6
v 0.7 3.3 -0.8
v 0.8 2 -0.3
v 0.8 2 -0.4
v 0.8 2 -0.6
v 0.8 2 -0.7
v 0.8 2.1 -0.3
v 0.8 2.1 -0.4
v 0.8 2.1 -0.6
v 0.8 2.1 -0.7
v 0.8 2.2 -0.4
v 0.8 2.2 -0.6
v 0.8 2.4 -0.6
v 0.8 2.4 -0.8
v 0.8 2.6 -0.3
v 0.8 2.6 -0.4
v 0.8 2.6 -0.7
v 0.8 2.6 -0.8
v 0.8 2.8 0
v 0.8 2.8 -0.3
v 0.8 2.8 -0.4
v 0.8 2.8 -0.6
v 0.8 2.8 -0.7
v 0.8 2.9 0
v 0.8 2.9 -0.3
v 0.8 3.3 -0.3
v 0.8 3.3 -0.5
v 0.8 3.4 -0.3
v 0.8 3.4 -0.5
v 0.9 2 -0.4
v 0.9 2 -0.6
v 0.9 2.1 -0.4
v 0.9 2.1 -0.6
v 0.9 2.4 -0.4
v 0.9 2.4 -0.6
v 0.9 2.6 -0.4
v 0.9 2.6 -0.6
v 0.9 3.1 -0.3
v 0.9 3.1 -0.7
v 0.9 3.2 -0.3
v 0.9 3.2 -0.6
v 0.9 3.2 -0.7
v 0.9 3.3 -0.3
v 0.9 3.3 -0.6
v 1 2.6 -0.4
v 1 2.6 -0.6
v 1 2.8 -0.4
v 1 2.8 -0.6
v 1 2.8 -0.9
v 1 3.1 -0.6
v 1 3.1 -0.9
v 1.1 2.8 -0.3
v 1.1 2.8 -0.6
v 1.1 2.9 0
v 1.1 2.9 -0.3
v 1.1 3.1 -0.3
v 1.1 3.1 -0.6
v 1.1 3.2 0
v 1.1 3.2 -0.3
v 0.5 2.8 0
v 0.5 3.1 0
v 0.8 2.8 0
v 0.8 2.9 0
v 0.8 3.1 0
v 0.8 3.2 0
v 1.1 2.9 0
v 1.1 3.2 0
v 0.1 2.9 -0.1
v 0.1 3.1 -0.1
v 0.4 2.6 -0.1
v 0.4 2.8 -0.1
v 0.5 2.8 -0.1
v 0.5 2.9 -0.1
v 0.5 3.1 -0.1
v 0.6 2.6 -0.1
v 0.6 2.8 -0.1
v 0.6 3.1 -0.1
v 0.6 3.2 -0.1
v 0.8 3.1 -0.1
v 0.8 3.2 -0.1
v 0.4 2.4 -0.2
v 0.4 2.6 -0.2
v 0.5 2 -0.2
v 0.5 2.1 -0.2
v 0.6 2.4 -0.2
v 0.6 2.6 -0.2
v 0.7 2 -0.2
v 0.7 2.1 -0.2
v 0 2.7 -0.3
v 0 3.1 -0.3
v 0.1 2.9 -0.3
v 0.1 3.1 -0.3
v 0.2 3.1 -0.3
v 0.2 3.3 -0.3
v 0.4 2 -0.3
v 0.4 2.1 -0.3
v 0.4 2.7 -0.3
v 0.4 2.8 -0.3
v 0.4 3.3 -0.3
v 0.4 3.5 -0.3
v 0.5 2 -0.3
v 0.5 2.1 -0.3
v 0.5 2.2 -0.3
v 0.5 2.8 -0.3
v 0.5 2.9 -0.3
v 0.6 2.6 -0.3
v 0.6 2.8 -0.3
v 0.6 3.1 -0.3
v 0.6 3.2 -0.3
v 0.6 3.4 -0.3
v 0.6 3.5 -0.3
v 0.7 2 -0.3
v 0.7 2.1 -0.3
v 0.7 2.2 -0.3
v 0.8 2 -0.3
v 0.8 2.1 -0.3
v 0.8 2.6 -0.3
v 0.8 2.8 -0.3
v 0.8 2.9 -0.3
v 0.8 3.3 -0.3
v 0.8 3.4 -0.3
v 0.9 3.2 -0.3
v 0.9 3.3 -0.3
v 1.1 2.8 -0.3
v 1.1 2.9 -0.3
v 0.2 2.5 -0.4
v 0.2 2.7 -0.4
v 0.3 2 -0.4
v 0.3 2.1 -0.4
v 0.3 2.4 -0.4
v 0.3 2.5 -0.4
v 0.4 2 -0.4
v 0.4 2.1 -0.4
v 0.4 2.2 -0.4
v 0.4 2.4 -0.4
v 0.4 2.7 -0.4
v 0.5 2.1 -0.4
v 0.5 2.2 -0.4
v 0.5 2.4 -0.4
v 0.6 2.4 -0.4
v 0.6 2.6 -0.4
v 0.7 2.1 -0.4
v 0.7 2.2 -0.4
v 0.7 2.4 -0.4
v 0.7 2.6 -0.4
v 0.8 2 -0.4
v 0.8 2.1 -0.4
v 0.8 2.2 -0.4
v 0.8 2.6 -0.4
v 0.8 2.8 -0.4
v 0.9 2 -0.4
v 0.9 2.1 -0.4
v 0.9 2.4 -0.4
v 0.9 2.6 -0.4
v 1 2.6 -0.4
v 1 2.8 -0.4
v 0.4 2.5 -0.7
v 0.4 2.6 -0.7
v 0.6 2.5 -0.7
v 0.6 2.6 -0.7
v 0.9 3.1 -0.3
v 0.9 3.2 -0.3
v 1.1 3.1 -0.3
v 1.1 3.2 -0.3
v 0.2 3.1 -0.5
v 0.2 3.3 -0.5
v 0.4 3.1 -0.5
v 0.4 3.3 -0.5
v 0.4 3.5 -0.5
v 0.6 3.4 -0.5
v 0.6 3.5 -0.5
v 0.8 3.3 -0.5
v 0.8 3.4 -0.5
v 0.2 2.5 -0.6
v 0.2 2.7 -0.6
v 0.3 2 -0.6
v 0.3 2.1 -0.6
v 0.3 2.4 -0.6
v 0.3 2.5 -0.6
v 0.4 2 -0.6
v 0.4 2.1 -0.6
v 0.4 2.2 -0.6
v 0.4 2.6 -0.6
v 0.4 2.7 -0.6
v 0.5 2.1 -0.6
v 0.5 2.2 -0.6
v 0.5 2.4 -0.6
v 0.5 2.6 -0.6
v 0.6 2.4 -0.6
v 0.6 2.6 -0.6
v 0.7 2.1 -0.6
v 0.7 2.2 -0.6
v 0.7 2.4 -0.6
v 0.7 3.2 -0.6
v 0.7 3.3 -0.6
v 0.8 2 -0.6
v 0.8 2.1 -0.6
v 0.8 2.2 -0.6
v 0.8 2.4 -0.6
v 0.8 2.8 -0.6
v 0.9 2 -0.6
v 0.9 2.1 -0.6
v 0.9 2.4 -0.6
v 0.9 2.6 -0.6
v 0.9 3.2 -0.6
v 0.9 3.3 -0.6
v 1 2.6 -0.6
v 1 2.8 -0.6
v 1 3.1 -0.6
v 1.1 2.8 -0.6
v 1.1 3.1 -0.6
v 0 2.7 -0.7
v 0 3.1 -0.7
v 0.2 2.8 -0.7
v 0.2 3 -0.7
v 0.4 2 -0.7
v 0.4 2.1 -0.7
v 0.4 2.7 -0.7
v 0.4 2.8 -0.7
v 0.4 3 -0.7
v 0.4 3.1 -0.7
v 0.5 2 -0.7
v 0.5 2.1 -0.7
v 0.5 2.2 -0.7
v 0.6 2.6 -0.7
v 0.6 2.7 -0.7
v 0.7 2 -0.7
v 0.7 2.1 -0.7
v 0.7 2.2 -0.7
v 0.7 2.7 -0.7
v 0.7 2.8 -0.7
v 0.7 3.1 -0.7
v 0.7 3.2 -0.7
v 0.8 2 -0.7
v 0.8 2.1 -0.7
v 0.8 2.6 -0.7
v 0.8 2.8 -0.7
v 0.9 3.1 -0.7
v 0.9 3.2 -0.7
v 0.2 2.8 -0.8
v 0.2 3 -0.8
v 0.4 2.8 -0.8
v 0.4 3 -0.8
v 0.4 3.3 -0.8
v 0.5 2 -0.8
v 0.5 2.1 -0.8
v 0.6 2.4 -0.8
v 0.6 2.5 -0.8
v 0.6 2.6 -0.8
v 0.7 2 -0.8
v 0.7 2.1 -0.8
v 0.7 3 -0.8
v 0.7 3.1 -0.8
v 0.7 3.3 -0.8
v 0.8 2.4 -0.8
v 0.8 2.6 -0.8
v 0.4 2.5 -0.9
v 0.4 2.7 -0.9
v 0.6 2.5 -0.9
v 0.6 2.7 -0.9
v 0.7 2.8 -0.9
v 0.7 3 -0.9
v 0.7 3.1 -0.9
v 1 2.8 -0.9
v 1 3.1 -0.9
v 0.4 2.7 -1
v 0.4 3 -1
v 0.7 2.7 -1
v 0.7 3 -1
v 0.5 2 -0.2
v 0.7 2 -0.2
v 0.4 2 -0.3
v 0.5 2 -0.3
v 0.7 2 -0.3
v 0.8 2 -0.3
v 0.3 2 -0.4
v 0.4 2 -0.4
v 0.8 2 -0.4
v 0.9 2 -0.4
v 0.3 2 -0.6
v 0.4 2 -0.6
v 0.8 2 -0.6
v 0.9 2 -0.6
v 0.4 2 -0.7
v 0.5 2 -0.7
v 0.7 2 -0.7
v 0.8 2 -0.7
v 0.5 2 -0.8
v 0.7 2 -0.8
v 0.4 2.4 -0.2
v 0.6 2.4 -0.2
v 0.3 2.4 -0.4
v 0.4 2.4 -0.4
v 0.5 2.4 -0.4
v 0.6 2.4 -0.4
v 0.7 2.4 -0.4
v 0.9 2.4 -0.4
v 0.3 2.4 -0.6
v 0.5 2.4 -0.6
v 0.6 2.4 -0.6
v 0.7 2.4 -0.6
v 0.8 2.4 -0.6
v 0.9 2.4 -0.6
v 0.6 2.4 -0.8
v 0.8 2.4 -0.8
v 0.2 2.5 -0.4
v 0.3 2.5 -0.4
v 0.2 2.5 -0.6
v 0.3 2.5 -0.6
v 0.4 2.5 -0.7
v 0.6 2.5 -0.7
v 0.6 2.5 -0.8
v 0.4 2.5 -0.9
v 0.6 2.5 -0.9
v 0.4 2.6 -0.1
v 0.6 2.6 -0.1
v 0.4 2.6 -0.2
v 0.6 2.6 -0.2
v 0.6 2.6 -0.3
v 0.8 2.6 -0.3
v 0.6 2.6 -0.4
v 0.7 2.6 -0.4
v 0.8 2.6 -0.4
v 0.9 2.6 -0.4
v 1 2.6 -0.4
v 0.4 2.6 -0.6
v 0.5 2.6 -0.6
v 0.6 2.6 -0.6
v 0.9 2.6 -0.6
v 1 2.6 -0.6
v 0.4 2.6 -0.7
v 0.6 2.6 -0.7
v 0 2.7 -0.3
v 0.4 2.7 -0.3
v 0.2 2.7 -0.4
v 0.4 2.7 -0.4
v 0.2 2.7 -0.6
v 0.4 2.7 -0.6
v 0 2.7 -0.7
v 0.4 2.7 -0.7
v 0.6 2.7 -0.7
v 0.7 2.7 -0.7
v 0.4 2.7 -0.9
v 0.6 2.7 -0.9
v 0.4 2.7 -1
v 0.7 2.7 -1
v 0.5 2.8 0
v 0.8 2.8 0
v 0.5 2.8 -0.1
v 0.6 2.8 -0.1
v 0.6 2.8 -0.3
v 0.8 2.8 -0.3
v 1.1 2.8 -0.3
v 0.8 2.8 -0.4
v 1 2.8 -0.4
v 0.8 2.8 -0.6
v 1 2.8 -0.6
v 1.1 2.8 -0.6
v 0.2 2.8 -0.7
v 0.4 2.8 -0.7
v 0.7 2.8 -0.7
v 0.8 2.8 -0.7
v 0.2 2.8 -0.8
v 0.4 2.8 -0.8
v 0.7 2.8 -0.9
v 1 2.8 -0.9
v 0.8 2.9 0
v 1.1 2.9 0
v 0.1 2.9 -0.1
v 0.5 2.9 -0.1
v 0.1 2.9 -0.3
v 0.5 2.9 -0.3
v 0.8 2.9 -0.3
v 1.1 2.9 -0.3
v 0.5 2.1 -0.2
v 0.7 2.1 -0.2
v 0.4 2.1 -0.3
v 0.5 2.1 -0.3
v 0.7 2.1 -0.3
v 0.8 2.1 -0.3
v 0.3 2.1 -0.4
v 0.4 2.1 -0.4
v 0.5 2.1 -0.4
v 0.7 2.1 -0.4
v 0.8 2.1 -0.4
v 0.9 2.1 -0.4
v 0.3 2.1 -0.6
v 0.4 2.1 -0.6
v 0.5 2.1 -0.6
v 0.7 2.1 -0.6
v 0.8 2.1 -0.6
v 0.9 2.1 -0.6
v 0.4 2.1 -0.7
v 0.5 2.1 -0.7
v 0.7 2.1 -0.7
v 0.8 2.1 -0.7
v 0.5 2.1 -0.8
v 0.7 2.1 -0.8
v 0.5 2.2 -0.3
v 0.7 2.2 -0.3
v 0.4 2.2 -0.4
v 0.5 2.2 -0.4
v 0.7 2.2 -0.4
v 0.8 2.2 -0.4
v 0.4 2.2 -0.6
v 0.5 2.2 -0.6
v 0.7 2.2 -0.6
v 0.8 2.2 -0.6
v 0.5 2.2 -0.7
v 0.7 2.2 -0.7
v 0.6 2.6 -0.7
v 0.8 2.6 -0.7
v 0.6 2.6 -0.8
v 0.8 2.6 -0.8
v 0.4 2.8 -0.1
v 0.5 2.8 -0.1
v 0.4 2.8 -0.3
v 0.5 2.8 -0.3
v 0.2 3 -0.7
v 0.4 3 -0.7
v 0.2 3 -0.8
v 0.4 3 -0.8
v 0.7 3 -0.8
v 0.7 3 -0.9
v 0.4 3 -1
v 0.7 3 -1
v 0.5 3.1 0
v 0.8 3.1 0
v 0.1 3.1 -0.1
v 0.5 3.1 -0.1
v 0.6 3.1 -0.1
v 0.8 3.1 -0.1
v 0 3.1 -0.3
v 0.1 3.1 -0.3
v 0.2 3.1 -0.3
v 0.6 3.1 -0.3
v 0.9 3.1 -0.3
v 1.1 3.1 -0.3
v 0.2 3.1 -0.5
v 0.4 3.1 -0.5
v 1 3.1 -0.6
v 1.1 3.1 -0.6
v 0 3.1 -0.7
v 0.4 3.1 -0.7
v 0.7 3.1 -0.7
v 0.9 3.1 -0.7
v 0.7 3.1 -0.8
v 0.7 3.1 -0.9
v 1 3.1 -0.9
v 0.8 3.2 0
v 1.1 3.2 0
v 0.6 3.2 -0.1
v 0.8 3.2 -0.1
v 0.6 3.2 -0.3
v 0.9 3.2 -0.3
v 1.1 3.2 -0.3
v 0.7 3.2 -0.6
v 0.9 3.2 -0.6
v 0.7 3.2 -0.7
v 0.9 3.2 -0.7
v 0.2 3.3 -0.3
v 0.4 3.3 -0.3
v 0.8 3.3 -0.3
v 0.9 3.3 -0.3
v 0.2 3.3 -0.5
v 0.4 3.3 -0.5
v 0.8 3.3 -0.5
v 0.7 3.3 -0.6
v 0.9 3.3 -0.6
v 0.4 3.3 -0.8
v 0.7 3.3 -0.8
v 0.6 3.4 -0.3
v 0.8 3.4 -0.3
v 0.6 3.4 -0.5
v 0.8 3.4 -0.5
v 0.4 3.5 -0.3
v 0.6 3.5 -0.3
v 0.4 3.5 -0.5
v 0.6 3.5 -0.5

# faces
f 3/3/1 2/3/1 1/3/1
f 4/3/1 2/3/1 3/3/1
f 7/3/1 6/3/1 5/3/1
f 8/3/1 6/3/1 7/3/1
f 11/3/1 10/3/1 9/3/1
f 12/3/1 10/3/1 11/3/1
f 15/3/1 14/3/1 13/3/1
f 16/3/1 14/3/1 15/3/1
f 19/3/1 18/3/1 17/3/1
f 20/3/1 18/3/1 19/3/1
f 23/1/1 22/1/1 21/1/1
f 24/1/1 22/1/1 23/1/1
f 27/3/1 26/3/1 25/3/1
f 28/3/1 26/3/1 27/3/1
f 33/1/1 30/1/1 29/1/1
f 34/1/1 30/1/1 33/1/1
f 35/1/1 32/1/1 31/1/1
f 36/1/1 32/1/1 35/1/1
f 37/1/1 35/1/1 34/1/1
f 38/1/1 35/1/1 37/1/1
f 44/3/1 40/3/1 39/3/1
f 46/3/1 42/3/1 41/3/1
f 47/3/1 44/3/1 43/3/1
f 47/3/1 40/3/1 44/3/1
f 48/3/1 40/3/1 47/3/1
f 49/3/1 46/3/1 45/3/1
f 50/3/1 42/3/1 46/3/1
f 50/3/1 46/3/1 49/3/1
f 51/3/1 42/3/1 50/3/1
f 53/3/1 47/3/1 43/3/1
f 54/3/1 47/3/1 53/3/1
f 55/3/1 52/3/1 51/3/1
f 55/3/1 51/3/1 50/3/1
f 56/3/1 52/3/1 55/3/1
f 58/3/1 52/3/1 56/3/1
f 59/3/1 52/3/1 58/3/1
f 61/3/1 58/3/1 57/3/1
f 63/3/1 61/3/1 60/3/1
f 64/3/1 58/3/1 61/3/1
f 64/3/1 61/3/1 63/3/1
f 65/3/1 63/3/1 62/3/1
f 66/3/1 63/3/1 65/3/1
f 71/1/1 68/1/1 67/1/1
f 72/1/1 68/1/1 71/1/1
f 75/1/1 70/1/1 69/1/1
f 76/1/1 70/1/1 75/1/1
f 77/1/1 73/1/1 72/1/1
f 78/1/1 73/1/1 77/1/1
f 79/1/1 75/1/1 74/1/1
f 80/1/1 75/1/1 79/1/1
f 81/1/1 79/1/1 78/1/1
f 82/1/1 79/1/1 81/1/1
f 86/3/1 84/3/1 83/3/1
f 86/3/1 85/3/1 84/3/1
f 87/3/1 85/3/1 86/3/1
f 88/3/1 86/3/1 83/3/1
f 89/3/1 86/3/1 88/3/1
f 92/3/1 91/3/1 90/3/1
f 93/3/1 91/3/1 92/3/1
f 94/3/1 92/3/1 90/3/1
f 95/3/1 92/3/1 94/3/1
f 98/3/1 97/3/1 96/3/1
f 99/3/1 97/3/1 98/3/1
f 102/3/1 101/3/1 100/3/1
f 103/3/1 101/3/1 102/3/1
f 106/3/1 105/3/1 104/3/1
f 107/3/1 105/3/1 106/3/1
f 108/3/2 109/3/2 113/3/2
f 113/3/2 109/3/2 114/3/2
f 114/3/2 109/3/2 115/3/2
f 110/3/2 111/3/2 117/3/2
f 116/3/2 117/3/2 118/3/2
f 117/3/2 111/3/2 119/3/2
f 118/3/2 117/3/2 119/3/2
f 112/3/2 113/3/2 120/3/2
f 113/3/2 114/3/2 120/3/2
f 120/3/2 114/3/2 121/3/2
f 122/3/2 123/3/2 124/3/2
f 124/3/2 123/3/2 125/3/2
f 126/1/2 127/1/2 130/1/2
f 130/1/2 127/1/2 131/1/2
f 128/1/2 129/1/2 134/1/2
f 134/1/2 129/1/2 135/1/2
f 131/1/2 132/1/2 136/1/2
f 136/1/2 132/1/2 137/1/2
f 133/1/2 134/1/2 138/1/2
f 138/1/2 134/1/2 139/1/2
f 137/1/2 138/1/2 140/1/2
f 140/1/2 138/1/2 141/1/2
f 142/3/2 143/3/2 144/3/2
f 144/3/2 143/3/2 145/3/2
f 145/3/2 143/3/2 146/3/2
f 146/3/2 143/3/2 147/3/2
f 148/3/2 149/3/2 151/3/2
f 150/3/2 151/3/2 152/3/2
f 151/3/2 149/3/2 153/3/2
f 152/3/2 151/3/2 153/3/2
f 154/1/2 155/1/2 158/1/2
f 158/1/2 155/1/2 159/1/2
f 156/1/2 157/1/2 160/1/2
f 160/1/2 157/1/2 161/1/2
f 159/1/2 160/1/2 162/1/2
f 162/1/2 160/1/2 163/1/2
f 164/3/2 165/3/2 168/3/2
f 168/3/2 165/3/2 169/3/2
f 166/3/2 167/3/2 171/3/2
f 171/3/2 167/3/2 172/3/2
f 164/3/2 168/3/2 173/3/2
f 173/3/2 168/3/2 174/3/2
f 170/3/2 171/3/2 175/3/2
f 175/3/2 171/3/2 176/3/2
f 177/3/2 178/3/2 179/3/2
f 179/3/2 178/3/2 180/3/2
f 181/1/2 182/1/2 183/1/2
f 183/1/2 182/1/2 184/1/2
f 185/3/2 186/3/2 187/3/2
f 187/3/2 186/3/2 188/3/2
f 189/3/2 190/3/2 191/3/2
f 191/3/2 190/3/2 192/3/2
f 192/3/2 190/3/2 193/3/2
f 191/3/2 192/3/2 194/3/2
f 194/3/2 192/3/2 195/3/2
f 196/3/2 197/3/2 198/3/2
f 198/3/2 197/3/2 199/3/2
f 199/3/2 200/3/2 201/3/2
f 201/3/2 200/3/2 202/3/2
f 203/3/2 204/3/2 206/3/2
f 206/3/2 204/3/2 207/3/2
f 205/3/2 206/3/2 207/3/2
f 207/3/2 204/3/2 208/3/2
f 205/3/2 207/3/2 209/3/2
f 209/3/2 207/3/2 210/3/2
f 213/3/3 212/3/3 211/3/3
f 214/3/3 212/3/3 213/3/3
f 215/3/3 212/3/3 214/3/3
f 217/3/3 216/3/3 215/3/3
f 217/3/3 215/3/3 214/3/3
f 218/3/3 216/3/3 217/3/3
f 223/3/3 222/3/3 221/3/3
f 224/3/3 220/3/3 219/3/3
f 225/3/3 220/3/3 224/3/3
f 226/3/3 223/3/3 221/3/3
f 227/3/3 223/3/3 226/3/3
f 230/3/3 229/3/3 228/3/3
f 231/3/3 229/3/3 230/3/3
f 236/3/3 233/3/3 232/3/3
f 237/3/3 233/3/3 236/3/3
f 238/1/3 235/1/3 234/1/3
f 239/1/3 235/1/3 238/1/3
f 242/3/3 241/3/3 240/3/3
f 243/3/3 241/3/3 242/3/3
f 248/3/3 242/3/3 240/3/3
f 249/3/3 242/3/3 248/3/3
f 250/3/3 245/3/3 244/3/3
f 252/1/3 247/1/3 246/1/3
f 253/1/3 247/1/3 252/1/3
f 255/3/3 242/3/3 249/3/3
f 256/3/3 242/3/3 255/3/3
f 259/3/3 251/3/3 250/3/3
f 259/3/3 250/3/3 244/3/3
f 260/3/3 251/3/3 259/3/3
f 261/3/3 251/3/3 260/3/3
f 262/3/3 251/3/3 261/3/3
f 264/1/3 254/1/3 253/1/3
f 265/1/3 254/1/3 264/1/3
f 266/1/3 264/1/3 263/1/3
f 267/1/3 264/1/3 266/1/3
f 268/3/3 258/3/3 257/3/3
f 269/3/3 258/3/3 268/3/3
f 271/3/3 261/3/3 260/3/3
f 272/3/3 261/3/3 271/3/3
f 273/3/3 271/3/3 260/3/3
f 274/3/3 271/3/3 273/3/3
f 275/3/3 270/3/3 269/3/3
f 276/3/3 270/3/3 275/3/3
f 282/3/3 278/3/3 277/3/3
f 283/1/3 280/1/3 279/1/3
f 284/1/3 280/1/3 283/1/3
f 286/3/3 282/3/3 281/3/3
f 287/3/3 278/3/3 282/3/3
f 287/3/3 282/3/3 286/3/3
f 288/1/3 285/1/3 284/1/3
f 289/1/3 285/1/3 288/1/3
f 291/1/3 290/1/3 289/1/3
f 294/1/3 291/1/3 289/1/3
f 294/1/3 292/1/3 291/1/3
f 295/1/3 292/1/3 294/1/3
f 296/1/3 292/1/3 295/1/3
f 298/1/3 294/1/3 293/1/3
f 299/1/3 294/1/3 298/1/3
f 300/3/3 296/3/3 295/3/3
f 302/1/3 298/1/3 297/1/3
f 303/1/3 298/1/3 302/1/3
f 304/3/3 300/3/3 295/3/3
f 304/3/3 301/3/3 300/3/3
f 305/3/3 301/3/3 304/3/3
f 306/3/3 301/3/3 305/3/3
f 307/3/3 301/3/3 306/3/3
f 310/3/3 309/3/3 308/3/3
f 311/3/3 309/3/3 310/3/3
f 312/3/4 313/3/4 314/3/4
f 314/3/4 313/3/4 315/3/4
f 316/3/4 317/3/4 318/3/4
f 318/3/4 317/3/4 319/3/4
f 319/3/4 320/3/4 321/3/4
f 321/3/4 320/3/4 322/3/4
f 319/3/4 321/3/4 323/3/4
f 323/3/4 321/3/4 324/3/4
f 325/3/4 326/3/4 330/3/4
f 327/1/4 328/1/4 331/1/4
f 331/1/4 328/1/4 332/1/4
f 329/3/4 330/3/4 334/3/4
f 330/3/4 326/3/4 334/3/4
f 334/3/4 326/3/4 335/3/4
f 332/1/4 333/1/4 336/1/4
f 336/1/4 333/1/4 337/1/4
f 329/3/4 334/3/4 338/3/4
f 338/3/4 334/3/4 339/3/4
f 337/1/4 338/1/4 340/1/4
f 338/1/4 339/1/4 340/1/4
f 340/1/4 339/1/4 341/1/4
f 337/1/4 340/1/4 343/1/4
f 343/1/4 340/1/4 344/1/4
f 342/1/4 343/1/4 348/1/4
f 348/1/4 343/1/4 349/1/4
f 347/1/4 348/1/4 352/1/4
f 352/1/4 348/1/4 353/1/4
f 350/3/4 351/3/4 354/3/4
f 354/3/4 351/3/4 355/3/4
f 345/3/4 346/3/4 356/3/4
f 356/3/4 346/3/4 357/3/4
f 355/3/4 351/3/4 358/3/4
f 358/3/4 351/3/4 359/3/4
f 359/3/4 360/3/4 361/3/4
f 361/3/4 360/3/4 362/3/4
f 363/3/4 364/3/4 365/3/4
f 365/3/4 364/3/4 366/3/4
f 363/3/4 365/3/4 369/3/4
f 369/3/4 365/3/4 370/3/4
f 366/3/4 364/3/4 371/3/4
f 371/3/4 364/3/4 372/3/4
f 367/1/4 368/1/4 373/1/4
f 373/1/4 368/1/4 374/1/4
f 374/1/4 375/1/4 379/1/4
f 379/1/4 375/1/4 380/1/4
f 376/3/4 377/3/4 381/3/4
f 378/1/4 379/1/4 385/1/4
f 385/1/4 379/1/4 386/1/4
f 381/3/4 382/3/4 387/3/4
f 376/3/4 381/3/4 387/3/4
f 387/3/4 382/3/4 388/3/4
f 383/3/4 384/3/4 389/3/4
f 389/3/4 384/3/4 390/3/4
f 391/3/4 392/3/4 393/3/4
f 393/3/4 392/3/4 394/3/4
f 396/1/4 397/1/4 401/1/4
f 401/1/4 397/1/4 402/1/4
f 394/3/4 395/3/4 403/3/4
f 403/3/4 395/3/4 404/3/4
f 404/3/4 395/3/4 405/3/4
f 399/3/4 400/3/4 406/3/4
f 398/3/4 399/3/4 406/3/4
f 406/3/4 400/3/4 407/3/4
f 408/3/4 409/3/4 410/3/4
f 410/3/4 409/3/4 411/3/4
f 412/3/4 413/3/4 415/3/4
f 413/3/4 414/3/4 415/3/4
f 415/3/4 414/3/4 416/3/4
f 417/3/4 418/3/4 419/3/4
f 419/3/4 418/3/4 420/3/4
f 424/1/5 422/1/5 421/1/5
f 425/1/5 422/1/5 424/1/5
f 428/1/5 424/1/5 423/1/5
f 428/1/5 426/1/5 425/1/5
f 428/1/5 425/1/5 424/1/5
f 429/1/5 426/1/5 428/1/5
f 431/1/5 428/1/5 427/1/5
f 431/1/5 430/1/5 429/1/5
f 431/1/5 429/1/5 428/1/5
f 432/1/5 430/1/5 431/1/5
f 433/1/5 430/1/5 432/1/5
f 434/1/5 430/1/5 433/1/5
f 435/1/5 433/1/5 432/1/5
f 436/1/5 433/1/5 435/1/5
f 437/1/5 433/1/5 436/1/5
f 438/1/5 433/1/5 437/1/5
f 439/1/5 437/1/5 436/1/5
f 440/1/5 437/1/5 439/1/5
f 444/3/5 442/3/5 441/3/5
f 445/3/5 442/3/5 444/3/5
f 446/3/5 442/3/5 445/3/5
f 449/3/5 444/3/5 443/3/5
f 449/3/5 445/3/5 444/3/5
f 450/3/5 445/3/5 449/3/5
f 452/3/5 448/3/5 447/3/5
f 453/3/5 448/3/5 452/3/5
f 454/3/5 448/3/5 453/3/5
f 455/3/5 452/3/5 451/3/5
f 455/3/5 453/3/5 452/3/5
f 456/3/5 453/3/5 455/3/5
f 459/3/5 458/3/5 457/3/5
f 460/3/5 458/3/5 459/3/5
f 463/3/5 462/3/5 461/3/5
f 464/3/5 463/3/5 461/3/5
f 465/3/5 463/3/5 464/3/5
f 468/3/5 467/3/5 466/3/5
f 469/3/5 467/3/5 468/3/5
f 472/3/5 471/3/5 470/3/5
f 473/3/5 471/3/5 472/3/5
f 474/3/5 471/3/5 473/3/5
f 480/3/5 476/3/5 475/3/5
f 481/3/5 476/3/5 480/3/5
f 482/3/5 479/3/5 478/3/5
f 482/3/5 478/3/5 477/3/5
f 483/3/5 479/3/5 482/3/5
f 486/3/5 485/3/5 484/3/5
f 487/3/5 485/3/5 486/3/5
f 488/3/5 486/3/5 484/3/5
f 490/3/5 488/3/5 484/3/5
f 490/3/5 489/3/5 488/3/5
f 491/3/5 489/3/5 490/3/5
f 495/3/5 493/3/5 492/3/5
f 496/3/5 495/3/5 494/3/5
f 497/3/5 493/3/5 495/3/5
f 497/3/5 495/3/5 496/3/5
f 500/3/5 499/3/5 498/3/5
f 501/3/5 499/3/5 500/3/5
f 502/3/5 499/3/5 501/3/5
f 503/3/5 499/3/5 502/3/5
f 505/3/5 504/3/5 503/3/5
f 506/3/5 504/3/5 505/3/5
f 508/3/5 504/3/5 506/3/5
f 509/3/5 504/3/5 508/3/5
f 513/3/5 508/3/5 507/3/5
f 514/3/5 511/3/5 510/3/5
f 515/3/5 511/3/5 514/3/5
f 516/3/5 513/3/5 512/3/5
f 517/3/5 508/3/5 513/3/5
f 517/3/5 513/3/5 516/3/5
f 522/3/5 521/3/5 520/3/5
f 523/3/5 521/3/5 522/3/5
f 524/3/5 519/3/5 518/3/5
f 525/3/5 519/3/5 524/3/5
f 526/1/6 527/1/6 529/1/6
f 529/1/6 527/1/6 530/1/6
f 528/1/6 529/1/6 533/1/6
f 533/1/6 529/1/6 534/1/6
f 530/1/6 531/1/6 535/1/6
f 535/1/6 531/1/6 536/1/6
f 532/1/6 533/1/6 538/1/6
f 538/1/6 533/1/6 539/1/6
f 536/1/6 537/1/6 542/1/6
f 542/1/6 537/1/6 543/1/6
f 539/1/6 540/1/6 544/1/6
f 544/1/6 540/1/6 545/1/6
f 541/1/6 542/1/6 546/1/6
f 546/1/6 542/1/6 547/1/6
f 545/1/6 546/1/6 548/1/6
f 548/1/6 546/1/6 549/1/6
f 550/1/6 551/1/6 553/1/6
f 553/1/6 551/1/6 554/1/6
f 552/1/6 553/1/6 556/1/6
f 556/1/6 553/1/6 557/1/6
f 554/1/6 555/1/6 558/1/6
f 558/1/6 555/1/6 559/1/6
f 557/1/6 558/1/6 560/1/6
f 560/1/6 558/1/6 561/1/6
f 562/3/6 563/3/6 564/3/6
f 564/3/6 563/3/6 565/3/6
f 566/3/6 567/3/6 568/3/6
f 568/3/6 567/3/6 569/3/6
f 570/3/6 571/3/6 572/3/6
f 572/3/6 571/3/6 573/3/6
f 573/3/6 574/3/6 575/3/6
f 573/3/6 575/3/6 576/3/6
f 576/3/6 575/3/6 577/3/6
f 578/3/6 579/3/6 581/3/6
f 581/3/6 579/3/6 582/3/6
f 582/3/6 579/3/6 583/3/6
f 580/3/6 581/3/6 585/3/6
f 581/3/6 582/3/6 585/3/6
f 585/3/6 582/3/6 586/3/6
f 586/3/6 582/3/6 587/3/6
f 584/3/6 585/3/6 590/3/6
f 585/3/6 586/3/6 590/3/6
f 588/3/6 589/3/6 592/3/6
f 592/3/6 589/3/6 593/3/6
f 590/3/6 591/3/6 594/3/6
f 584/3/6 590/3/6 594/3/6
f 594/3/6 591/3/6 595/3/6
f 588/3/6 592/3/6 597/3/6
f 596/3/6 597/3/6 598/3/6
f 598/3/6 597/3/6 599/3/6
f 597/3/6 592/3/6 600/3/6
f 599/3/6 597/3/6 600/3/6
f 601/3/6 602/3/6 604/3/6
f 603/3/6 604/3/6 605/3/6
f 604/3/6 602/3/6 606/3/6
f 605/3/6 604/3/6 606/3/6
f 606/3/6 602/3/6 607/3/6
f 608/3/6 609/3/6 610/3/6
f 610/3/6 609/3/6 611/3/6
f 612/3/6 613/3/6 616/3/6
f 616/3/6 613/3/6 617/3/6
f 614/3/6 615/3/6 618/3/6
f 617/3/6 618/3/6 619/3/6
f 618/3/6 615/3/6 620/3/6
f 619/3/6 618/3/6 620/3/6
f 617/3/6 619/3/6 621/3/6
f 621/3/6 619/3/6 622/3/6
f 623/3/6 624/3/6 625/3/6
f 625/3/6 624/3/6 626/3/6
f 627/3/6 628/3/6 629/3/6
f 629/3/6 628/3/6 630/3/6
