# MagicaVoxel @ Ephtracy

# group
o 

# material
mtllib orange_bush2.mtl
usemtl palette

# normals
vn -1 0 0
vn 1 0 0
vn 0 0 1
vn 0 0 -1
vn 0 -1 0
vn 0 1 0

# texcoords
vt 0.177734 0.5
vt 0.208984 0.5
vt 0.583984 0.5

# verts
v 0 2.5 -0.3
v 0 2.5 -0.7
v 0 2.6 -0.3
v 0 2.6 -0.4
v 0 2.7 -0.3
v 0 2.7 -0.4
v 0 2.7 -0.6
v 0 2.7 -0.7
v 0 2.8 -0.6
v 0 2.8 -0.7
v 0 2.9 -0.3
v 0 2.9 -0.7
v 0.1 2.9 -0.4
v 0.1 2.9 -0.6
v 0.1 3 -0.4
v 0.1 3 -0.6
v 0.2 2.5 -0.7
v 0.2 2.5 -1
v 0.2 2.6 -0.9
v 0.2 2.6 -1
v 0.2 2.7 -0.9
v 0.2 2.7 -1
v 0.2 2.8 -0.7
v 0.2 2.8 -1
v 0.3 2.9 -0.3
v 0.3 2.9 -0.4
v 0.3 2.9 -0.6
v 0.3 2.9 -0.7
v 0.3 3 -0.4
v 0.3 3 -0.5
v 0.3 3 -0.6
v 0.3 3.1 -0.4
v 0.3 3.1 -0.5
v 0.3 3.2 -0.3
v 0.3 3.2 -0.7
v 0.4 2.3 -0.3
v 0.4 2.3 -0.5
v 0.4 2.3 -0.6
v 0.4 2.3 -0.9
v 0.4 2.4 -0.5
v 0.4 2.4 -0.6
v 0.4 2.5 -0.3
v 0.4 2.5 -0.9
v 0.4 2.5 -1
v 0.4 2.5 -1.2
v 0.4 2.7 -0.1
v 0.4 2.7 -0.3
v 0.4 2.8 -0.7
v 0.4 2.8 -1
v 0.4 2.8 -1.2
v 0.4 2.9 -0.1
v 0.4 2.9 -0.2
v 0.4 2.9 -0.7
v 0.4 3 -0.1
v 0.4 3 -0.2
v 0.4 3 -0.9
v 0.4 3 -1
v 0.4 3.1 -0.1
v 0.4 3.1 -0.3
v 0.4 3.1 -0.7
v 0.4 3.1 -0.9
v 0.5 2 -0.5
v 0.5 2 -0.7
v 0.5 2.1 -0.5
v 0.5 2.1 -0.7
v 0.5 2.4 0
v 0.5 2.4 -0.3
v 0.5 2.5 0
v 0.5 2.5 -0.1
v 0.5 2.6 0
v 0.5 2.6 -0.1
v 0.5 2.7 0
v 0.5 2.7 -0.1
v 0.5 2.7 -0.3
v 0.6 2 -0.4
v 0.6 2 -0.5
v 0.6 2 -0.7
v 0.6 2 -0.8
v 0.6 2.1 -0.4
v 0.6 2.1 -0.5
v 0.6 2.1 -0.7
v 0.6 2.1 -0.8
v 0.6 2.3 -0.5
v 0.6 2.3 -0.7
v 0.6 2.7 0
v 0.6 2.7 -0.1
v 0.6 2.9 0
v 0.6 2.9 -0.1
v 0.6 3.1 -0.7
v 0.6 3.1 -0.8
v 0.6 3.2 -0.5
v 0.6 3.2 -0.7
v 0.6 3.2 -0.8
v 0.6 3.3 -0.5
v 0.6 3.3 -0.7
v 0.7 2.8 -1
v 0.7 2.8 -1.1
v 0.7 2.9 -1
v 0.7 3 -1
v 0.7 3 -1.1
v 0.6 3 -0.8
v 0.6 3 -0.9
v 0.6 3.1 -0.8
v 0.6 3.1 -0.9
v 0.7 2.5 -1.1
v 0.7 2.5 -1.2
v 0.7 2.6 -1.1
v 0.7 2.6 -1.2
v 0.7 2.8 -1.1
v 0.7 2.8 -1.2
v 0.7 3.1 -0.3
v 0.7 3.1 -0.4
v 0.7 3.2 -0.3
v 0.7 3.2 -0.4
v 0.8 2 -0.4
v 0.8 2 -0.5
v 0.8 2 -0.7
v 0.8 2 -0.8
v 0.8 2.1 -0.4
v 0.8 2.1 -0.5
v 0.8 2.1 -0.7
v 0.8 2.1 -0.8
v 0.8 2.3 -0.5
v 0.8 2.3 -0.7
v 0.8 2.4 0
v 0.8 2.4 -0.1
v 0.8 2.6 0
v 0.8 2.6 -0.1
v 0.8 3.2 -0.5
v 0.8 3.2 -0.6
v 0.8 3.2 -0.7
v 0.8 3.3 -0.5
v 0.8 3.3 -0.7
v 0.9 2 -0.5
v 0.9 2 -0.7
v 0.9 2.1 -0.5
v 0.9 2.1 -0.7
v 0.9 2.4 -0.1
v 0.9 2.4 -0.3
v 0.9 2.5 -0.9
v 0.9 2.5 -1.1
v 0.9 2.6 0
v 0.9 2.6 -0.1
v 0.9 2.6 -0.2
v 0.9 2.6 -0.3
v 0.9 2.7 -0.9
v 0.9 2.7 -1.1
v 0.9 2.9 0
v 0.9 2.9 -0.1
v 0.9 2.9 -0.2
v 0.9 2.9 -0.4
v 0.9 3 -0.4
v 0.9 3.1 -0.1
v 0.9 3.1 -0.4
v 1 2.3 -0.3
v 1 2.3 -0.9
v 1 2.4 -0.3
v 1 2.4 -0.4
v 1 2.4 -0.5
v 1 2.5 -0.5
v 1 2.5 -0.9
v 1 2.7 -0.9
v 1 2.7 -1.1
v 1 2.8 -0.9
v 1 2.9 -0.4
v 1 2.9 -0.5
v 1 2.9 -0.6
v 1 2.9 -0.8
v 1 2.9 -0.9
v 1 3 -0.4
v 1 3 -0.5
v 1 3 -0.6
v 1 3 -0.8
v 1 3 -1.1
v 1 3.2 -0.4
v 1 3.2 -0.8
v 1.1 2.4 -0.3
v 1.1 2.4 -0.4
v 1.1 2.4 -0.5
v 1.1 2.5 -0.3
v 1.1 2.5 -0.4
v 1.1 2.5 -0.5
v 1.1 2.6 -0.3
v 1.1 2.6 -0.5
v 1.2 2.6 -0.2
v 1.2 2.6 -0.5
v 1.2 2.7 -0.2
v 1.2 2.7 -0.3
v 1.2 2.8 -0.2
v 1.2 2.8 -0.3
v 1.2 2.9 -0.2
v 1.2 2.9 -0.5
v 1.2 2.9 -0.6
v 1.2 2.9 -0.8
v 1.2 3 -0.6
v 1.2 3 -0.8
v 1.4 2.5 -0.5
v 1.4 2.5 -0.9
v 1.4 2.6 -0.8
v 1.4 2.6 -0.9
v 1.4 2.7 -0.5
v 1.4 2.7 -0.6
v 1.4 2.7 -0.8
v 1.4 2.7 -0.9
v 1.4 2.8 -0.5
v 1.4 2.8 -0.6
v 1.4 2.9 -0.5
v 1.4 2.9 -0.9
v 0.5 2.4 0
v 0.5 2.5 0
v 0.5 2.6 0
v 0.5 2.7 0
v 0.6 2.5 0
v 0.6 2.6 0
v 0.6 2.7 0
v 0.6 2.9 0
v 0.7 2.7 0
v 0.7 2.8 0
v 0.8 2.4 0
v 0.8 2.6 0
v 0.8 2.7 0
v 0.8 2.8 0
v 0.9 2.6 0
v 0.9 2.9 0
v 0.4 2.7 -0.1
v 0.4 2.9 -0.1
v 0.4 3 -0.1
v 0.4 3.1 -0.1
v 0.5 2.7 -0.1
v 0.5 2.9 -0.1
v 0.5 3 -0.1
v 0.6 2.7 -0.1
v 0.6 2.9 -0.1
v 0.8 2.4 -0.1
v 0.8 2.6 -0.1
v 0.9 2.4 -0.1
v 0.9 2.6 -0.1
v 0.9 2.9 -0.1
v 0.9 3.1 -0.1
v 0.9 2.6 -0.2
v 0.9 2.9 -0.2
v 1.1 2.7 -0.2
v 1.1 2.8 -0.2
v 1.2 2.6 -0.2
v 1.2 2.7 -0.2
v 1.2 2.8 -0.2
v 1.2 2.9 -0.2
v 0 2.5 -0.3
v 0 2.6 -0.3
v 0 2.7 -0.3
v 0 2.9 -0.3
v 0.1 2.6 -0.3
v 0.1 2.7 -0.3
v 0.1 2.8 -0.3
v 0.2 2.7 -0.3
v 0.2 2.8 -0.3
v 0.3 2.9 -0.3
v 0.3 3.2 -0.3
v 0.4 2.3 -0.3
v 0.4 2.5 -0.3
v 0.4 2.7 -0.3
v 0.4 3.1 -0.3
v 0.5 2.4 -0.3
v 0.5 2.7 -0.3
v 0.5 3.1 -0.3
v 0.5 3.2 -0.3
v 0.6 3.1 -0.3
v 0.6 3.2 -0.3
v 0.7 3.1 -0.3
v 0.7 3.2 -0.3
v 0.9 2.4 -0.3
v 0.9 2.6 -0.3
v 1 2.3 -0.3
v 1 2.4 -0.3
v 1 2.5 -0.3
v 1.1 2.4 -0.3
v 1.1 2.5 -0.3
v 1.1 2.6 -0.3
v 0.1 2.9 -0.4
v 0.1 3 -0.4
v 0.3 2.9 -0.4
v 0.3 3 -0.4
v 0.6 2 -0.4
v 0.6 2.1 -0.4
v 0.7 3.1 -0.4
v 0.7 3.2 -0.4
v 0.8 2 -0.4
v 0.8 2.1 -0.4
v 0.9 2.9 -0.4
v 0.9 3 -0.4
v 0.9 3.1 -0.4
v 1 2.9 -0.4
v 1 3 -0.4
v 1 3.2 -0.4
v 0.5 2 -0.5
v 0.5 2.1 -0.5
v 0.6 2 -0.5
v 0.6 2.1 -0.5
v 0.6 2.3 -0.5
v 0.6 3.2 -0.5
v 0.6 3.3 -0.5
v 0.8 2 -0.5
v 0.8 2.1 -0.5
v 0.8 2.3 -0.5
v 0.8 3.2 -0.5
v 0.8 3.3 -0.5
v 0.9 2 -0.5
v 0.9 2.1 -0.5
v 1.1 2.5 -0.5
v 1.1 2.6 -0.5
v 1.2 2.6 -0.5
v 1.2 2.9 -0.5
v 1.3 2.7 -0.5
v 1.3 2.8 -0.5
v 1.4 2.5 -0.5
v 1.4 2.7 -0.5
v 1.4 2.8 -0.5
v 1.4 2.9 -0.5
v 1 2.9 -0.6
v 1 3 -0.6
v 1.2 2.9 -0.6
v 1.2 3 -0.6
v 1 2.4 -0.5
v 1 2.5 -0.5
v 1.1 2.4 -0.5
v 1.1 2.5 -0.5
v 0.1 2.9 -0.6
v 0.1 3 -0.6
v 0.3 2.9 -0.6
v 0.3 3 -0.6
v 0 2.5 -0.7
v 0 2.7 -0.7
v 0 2.8 -0.7
v 0 2.9 -0.7
v 0.1 2.7 -0.7
v 0.1 2.8 -0.7
v 0.2 2.5 -0.7
v 0.2 2.8 -0.7
v 0.3 2.8 -0.7
v 0.3 2.9 -0.7
v 0.3 3.2 -0.7
v 0.4 2.8 -0.7
v 0.4 2.9 -0.7
v 0.4 3.1 -0.7
v 0.4 3.2 -0.7
v 0.5 2 -0.7
v 0.5 2.1 -0.7
v 0.5 3.1 -0.7
v 0.5 3.2 -0.7
v 0.6 2 -0.7
v 0.6 2.1 -0.7
v 0.6 2.3 -0.7
v 0.6 3.1 -0.7
v 0.6 3.2 -0.7
v 0.6 3.3 -0.7
v 0.8 2 -0.7
v 0.8 2.1 -0.7
v 0.8 2.3 -0.7
v 0.8 3.2 -0.7
v 0.8 3.3 -0.7
v 0.9 2 -0.7
v 0.9 2.1 -0.7
v 0.6 2 -0.8
v 0.6 2.1 -0.8
v 0.6 3 -0.8
v 0.6 3.1 -0.8
v 0.6 3.2 -0.8
v 0.8 2 -0.8
v 0.8 2.1 -0.8
v 0.8 3 -0.8
v 0.8 3.1 -0.8
v 0.9 3 -0.8
v 0.9 3.1 -0.8
v 1 2.9 -0.8
v 1 3 -0.8
v 1 3.2 -0.8
v 1.1 2.9 -0.8
v 1.2 2.9 -0.8
v 1.2 3 -0.8
v 0.4 2.3 -0.9
v 0.4 2.5 -0.9
v 0.4 3 -0.9
v 0.4 3.1 -0.9
v 0.6 3 -0.9
v 0.6 3.1 -0.9
v 0.8 2.3 -0.9
v 0.8 2.4 -0.9
v 0.9 2.3 -0.9
v 0.9 2.4 -0.9
v 0.9 2.5 -0.9
v 0.9 2.7 -0.9
v 1 2.3 -0.9
v 1 2.5 -0.9
v 1 2.7 -0.9
v 1 2.8 -0.9
v 1 2.9 -0.9
v 1.1 2.8 -0.9
v 1.1 2.9 -0.9
v 1.3 2.6 -0.9
v 1.3 2.7 -0.9
v 1.4 2.5 -0.9
v 1.4 2.6 -0.9
v 1.4 2.7 -0.9
v 1.4 2.9 -0.9
v 0.2 2.5 -1
v 0.2 2.6 -1
v 0.2 2.7 -1
v 0.2 2.8 -1
v 0.3 2.6 -1
v 0.3 2.7 -1
v 0.4 2.5 -1
v 0.4 2.8 -1
v 0.4 3 -1
v 0.6 2.9 -1
v 0.6 3 -1
v 0.7 2.8 -1
v 0.7 2.9 -1
v 0.7 3 -1
v 0.7 2.5 -1.1
v 0.7 2.6 -1.1
v 0.7 2.8 -1.1
v 0.7 3 -1.1
v 0.8 2.7 -1.1
v 0.8 2.8 -1.1
v 0.9 2.5 -1.1
v 0.9 2.7 -1.1
v 0.9 2.8 -1.1
v 1 2.7 -1.1
v 1 3 -1.1
v 0.4 2.5 -1.2
v 0.4 2.8 -1.2
v 0.6 2.5 -1.2
v 0.6 2.6 -1.2
v 0.7 2.5 -1.2
v 0.7 2.6 -1.2
v 0.7 2.8 -1.2
v 0.6 2 -0.4
v 0.8 2 -0.4
v 0.5 2 -0.5
v 0.6 2 -0.5
v 0.8 2 -0.5
v 0.9 2 -0.5
v 0.5 2 -0.7
v 0.6 2 -0.7
v 0.8 2 -0.7
v 0.9 2 -0.7
v 0.6 2 -0.8
v 0.8 2 -0.8
v 0.4 2.3 -0.3
v 1 2.3 -0.3
v 0.4 2.3 -0.5
v 0.5 2.3 -0.5
v 0.6 2.3 -0.5
v 0.8 2.3 -0.5
v 0.4 2.3 -0.6
v 0.5 2.3 -0.6
v 0.6 2.3 -0.7
v 0.8 2.3 -0.7
v 0.8 2.3 -0.8
v 0.9 2.3 -0.8
v 0.4 2.3 -0.9
v 0.8 2.3 -0.9
v 0.9 2.3 -0.9
v 1 2.3 -0.9
v 0.5 2.4 0
v 0.8 2.4 0
v 0.8 2.4 -0.1
v 0.9 2.4 -0.1
v 0.5 2.4 -0.3
v 0.9 2.4 -0.3
v 1 2.4 -0.3
v 1.1 2.4 -0.3
v 1 2.4 -0.4
v 1.1 2.4 -0.4
v 1 2.4 -0.5
v 1.1 2.4 -0.5
v 0 2.5 -0.3
v 0.4 2.5 -0.3
v 1 2.5 -0.5
v 1.1 2.5 -0.5
v 1.4 2.5 -0.5
v 0 2.5 -0.7
v 0.2 2.5 -0.7
v 0.4 2.5 -0.9
v 0.9 2.5 -0.9
v 1 2.5 -0.9
v 1.4 2.5 -0.9
v 0.2 2.5 -1
v 0.4 2.5 -1
v 0.6 2.5 -1.1
v 0.7 2.5 -1.1
v 0.9 2.5 -1.1
v 0.4 2.5 -1.2
v 0.6 2.5 -1.2
v 0.7 2.5 -1.2
v 0.8 2.6 0
v 0.9 2.6 0
v 0.8 2.6 -0.1
v 0.9 2.6 -0.1
v 0.9 2.6 -0.2
v 1.2 2.6 -0.2
v 0.9 2.6 -0.3
v 1.1 2.6 -0.3
v 1.1 2.6 -0.5
v 1.2 2.6 -0.5
v 0.4 2.7 -0.1
v 0.5 2.7 -0.1
v 0.4 2.7 -0.3
v 0.5 2.7 -0.3
v 0.9 2.7 -0.9
v 1 2.7 -0.9
v 0.9 2.7 -1.1
v 1 2.7 -1.1
v 0.6 2.1 -0.4
v 0.8 2.1 -0.4
v 0.5 2.1 -0.5
v 0.6 2.1 -0.5
v 0.8 2.1 -0.5
v 0.9 2.1 -0.5
v 0.5 2.1 -0.7
v 0.6 2.1 -0.7
v 0.8 2.1 -0.7
v 0.9 2.1 -0.7
v 0.6 2.1 -0.8
v 0.8 2.1 -0.8
v 0.5 2.7 0
v 0.6 2.7 0
v 0.5 2.7 -0.1
v 0.6 2.7 -0.1
v 0.2 2.8 -0.7
v 0.3 2.8 -0.7
v 0.4 2.8 -0.7
v 0.2 2.8 -1
v 0.4 2.8 -1
v 0.7 2.8 -1
v 0.7 2.8 -1.1
v 0.4 2.8 -1.2
v 0.7 2.8 -1.2
v 0.6 2.9 0
v 0.9 2.9 0
v 0.6 2.9 -0.1
v 0.9 2.9 -0.1
v 0.9 2.9 -0.2
v 1.2 2.9 -0.2
v 0 2.9 -0.3
v 0.3 2.9 -0.3
v 0.1 2.9 -0.4
v 0.3 2.9 -0.4
v 0.9 2.9 -0.4
v 1 2.9 -0.4
v 1 2.9 -0.5
v 1.2 2.9 -0.5
v 1.4 2.9 -0.5
v 0.1 2.9 -0.6
v 0.3 2.9 -0.6
v 1 2.9 -0.6
v 1.2 2.9 -0.6
v 0 2.9 -0.7
v 0.3 2.9 -0.7
v 1 2.9 -0.8
v 1.1 2.9 -0.8
v 1.2 2.9 -0.8
v 1 2.9 -0.9
v 1.1 2.9 -0.9
v 1.4 2.9 -0.9
v 0.1 3 -0.4
v 0.3 3 -0.4
v 0.3 3 -0.5
v 0.1 3 -0.6
v 0.3 3 -0.6
v 1 3 -0.6
v 1.2 3 -0.6
v 0.6 3 -0.8
v 0.8 3 -0.8
v 0.9 3 -0.8
v 1 3 -0.8
v 1.2 3 -0.8
v 0.4 3 -0.9
v 0.6 3 -0.9
v 0.7 3 -0.9
v 0.4 3 -1
v 0.6 3 -1
v 0.7 3 -1
v 0.7 3 -1.1
v 1 3 -1.1
v 0.4 3.1 -0.1
v 0.9 3.1 -0.1
v 0.4 3.1 -0.3
v 0.5 3.1 -0.3
v 0.6 3.1 -0.3
v 0.7 3.1 -0.3
v 0.7 3.1 -0.4
v 0.9 3.1 -0.4
v 0.4 3.1 -0.7
v 0.5 3.1 -0.7
v 0.6 3.1 -0.7
v 0.6 3.1 -0.8
v 0.4 3.1 -0.9
v 0.6 3.1 -0.9
v 0.3 3.2 -0.3
v 0.5 3.2 -0.3
v 0.6 3.2 -0.3
v 0.7 3.2 -0.3
v 0.5 3.2 -0.4
v 0.6 3.2 -0.4
v 0.7 3.2 -0.4
v 1 3.2 -0.4
v 0.6 3.2 -0.5
v 0.8 3.2 -0.5
v 0.4 3.2 -0.6
v 0.5 3.2 -0.6
v 0.8 3.2 -0.6
v 0.9 3.2 -0.6
v 0.3 3.2 -0.7
v 0.4 3.2 -0.7
v 0.5 3.2 -0.7
v 0.6 3.2 -0.7
v 0.8 3.2 -0.7
v 0.9 3.2 -0.7
v 0.6 3.2 -0.8
v 1 3.2 -0.8
v 0.6 3.3 -0.5
v 0.8 3.3 -0.5
v 0.6 3.3 -0.7
v 0.8 3.3 -0.7

# faces
f 3/3/1 2/3/1 1/3/1
f 4/3/1 2/3/1 3/3/1
f 5/2/1 4/2/1 3/2/1
f 6/3/1 2/3/1 4/3/1
f 6/2/1 4/2/1 5/2/1
f 7/3/1 2/3/1 6/3/1
f 8/3/1 2/3/1 7/3/1
f 9/3/1 6/3/1 5/3/1
f 9/3/1 7/3/1 6/3/1
f 9/2/1 8/2/1 7/2/1
f 10/2/1 8/2/1 9/2/1
f 11/3/1 9/3/1 5/3/1
f 11/3/1 10/3/1 9/3/1
f 12/3/1 10/3/1 11/3/1
f 15/3/1 14/3/1 13/3/1
f 16/3/1 14/3/1 15/3/1
f 19/3/1 18/3/1 17/3/1
f 20/3/1 18/3/1 19/3/1
f 21/3/1 19/3/1 17/3/1
f 21/2/1 20/2/1 19/2/1
f 22/2/1 20/2/1 21/2/1
f 23/3/1 21/3/1 17/3/1
f 23/3/1 22/3/1 21/3/1
f 24/3/1 22/3/1 23/3/1
f 29/3/1 26/3/1 25/3/1
f 31/3/1 28/3/1 27/3/1
f 32/2/1 30/2/1 29/2/1
f 32/3/1 29/3/1 25/3/1
f 33/3/1 31/3/1 30/3/1
f 33/2/1 30/2/1 32/2/1
f 34/3/1 32/3/1 25/3/1
f 34/3/1 33/3/1 32/3/1
f 35/3/1 31/3/1 33/3/1
f 35/3/1 33/3/1 34/3/1
f 35/3/1 28/3/1 31/3/1
f 40/3/1 37/3/1 36/3/1
f 40/2/1 38/2/1 37/2/1
f 41/3/1 39/3/1 38/3/1
f 41/2/1 38/2/1 40/2/1
f 42/3/1 40/3/1 36/3/1
f 42/3/1 41/3/1 40/3/1
f 43/3/1 39/3/1 41/3/1
f 43/3/1 41/3/1 42/3/1
f 49/3/1 45/3/1 44/3/1
f 50/3/1 45/3/1 49/3/1
f 51/3/1 47/3/1 46/3/1
f 52/3/1 47/3/1 51/3/1
f 53/3/1 49/3/1 48/3/1
f 54/2/1 52/2/1 51/2/1
f 55/3/1 47/3/1 52/3/1
f 55/2/1 52/2/1 54/2/1
f 56/3/1 49/3/1 53/3/1
f 57/3/1 49/3/1 56/3/1
f 58/3/1 55/3/1 54/3/1
f 59/3/1 47/3/1 55/3/1
f 59/3/1 55/3/1 58/3/1
f 60/3/1 56/3/1 53/3/1
f 61/3/1 56/3/1 60/3/1
f 64/1/1 63/1/1 62/1/1
f 65/1/1 63/1/1 64/1/1
f 68/3/1 67/3/1 66/3/1
f 69/3/1 67/3/1 68/3/1
f 70/2/1 69/2/1 68/2/1
f 71/3/1 67/3/1 69/3/1
f 71/2/1 69/2/1 70/2/1
f 72/3/1 71/3/1 70/3/1
f 73/3/1 67/3/1 71/3/1
f 73/3/1 71/3/1 72/3/1
f 74/3/1 67/3/1 73/3/1
f 79/1/1 76/1/1 75/1/1
f 80/1/1 76/1/1 79/1/1
f 81/1/1 78/1/1 77/1/1
f 82/1/1 78/1/1 81/1/1
f 83/1/1 81/1/1 80/1/1
f 84/1/1 81/1/1 83/1/1
f 87/3/1 86/3/1 85/3/1
f 88/3/1 86/3/1 87/3/1
f 92/3/1 90/3/1 89/3/1
f 93/3/1 90/3/1 92/3/1
f 94/3/1 92/3/1 91/3/1
f 95/3/1 92/3/1 94/3/1
f 98/3/1 97/3/1 96/3/1
f 99/3/1 97/3/1 98/3/1
f 100/3/1 97/3/1 99/3/1
f 101/3/2 102/3/2 103/3/2
f 103/3/2 102/3/2 104/3/2
f 105/2/2 106/2/2 107/2/2
f 107/2/2 106/2/2 108/2/2
f 107/3/2 108/3/2 109/3/2
f 109/3/2 108/3/2 110/3/2
f 111/3/2 112/3/2 113/3/2
f 113/3/2 112/3/2 114/3/2
f 115/1/2 116/1/2 119/1/2
f 119/1/2 116/1/2 120/1/2
f 117/1/2 118/1/2 121/1/2
f 121/1/2 118/1/2 122/1/2
f 120/1/2 121/1/2 123/1/2
f 123/1/2 121/1/2 124/1/2
f 125/3/2 126/3/2 127/3/2
f 127/3/2 126/3/2 128/3/2
f 129/3/2 130/3/2 132/3/2
f 130/3/2 131/3/2 132/3/2
f 132/3/2 131/3/2 133/3/2
f 134/1/2 135/1/2 136/1/2
f 136/1/2 135/1/2 137/1/2
f 138/3/2 139/3/2 143/3/2
f 143/3/2 139/3/2 144/3/2
f 144/3/2 139/3/2 145/3/2
f 140/3/2 141/3/2 146/3/2
f 146/3/2 141/3/2 147/3/2
f 143/3/2 144/3/2 148/3/2
f 142/3/2 143/3/2 148/3/2
f 148/3/2 144/3/2 149/3/2
f 149/3/2 144/3/2 150/3/2
f 150/3/2 151/3/2 152/3/2
f 149/3/2 150/3/2 152/3/2
f 149/3/2 152/3/2 153/3/2
f 153/3/2 152/3/2 154/3/2
f 155/3/2 156/3/2 157/3/2
f 157/3/2 156/3/2 158/3/2
f 158/3/2 156/3/2 159/3/2
f 159/3/2 156/3/2 160/3/2
f 160/3/2 156/3/2 161/3/2
f 162/3/2 163/3/2 164/3/2
f 164/3/2 163/3/2 169/3/2
f 165/2/2 166/2/2 170/2/2
f 166/3/2 167/3/2 171/3/2
f 170/2/2 166/2/2 171/2/2
f 171/3/2 167/3/2 172/3/2
f 168/3/2 169/3/2 173/3/2
f 169/3/2 163/3/2 174/3/2
f 173/3/2 169/3/2 174/3/2
f 171/3/2 172/3/2 175/3/2
f 172/3/2 173/3/2 175/3/2
f 170/3/2 171/3/2 175/3/2
f 175/3/2 173/3/2 176/3/2
f 177/2/2 178/2/2 180/2/2
f 178/3/2 179/3/2 181/3/2
f 180/2/2 178/2/2 181/2/2
f 181/3/2 179/3/2 182/3/2
f 180/3/2 181/3/2 183/3/2
f 181/3/2 182/3/2 183/3/2
f 183/3/2 182/3/2 184/3/2
f 185/3/2 186/3/2 187/3/2
f 187/3/2 186/3/2 188/3/2
f 187/2/2 188/2/2 189/2/2
f 188/3/2 186/3/2 190/3/2
f 189/2/2 188/2/2 190/2/2
f 189/3/2 190/3/2 191/3/2
f 190/3/2 186/3/2 192/3/2
f 191/3/2 190/3/2 192/3/2
f 193/3/2 194/3/2 195/3/2
f 195/3/2 194/3/2 196/3/2
f 197/3/2 198/3/2 199/3/2
f 199/3/2 198/3/2 200/3/2
f 197/3/2 199/3/2 201/3/2
f 201/3/2 199/3/2 202/3/2
f 199/2/2 200/2/2 203/2/2
f 202/3/2 199/3/2 203/3/2
f 203/2/2 200/2/2 204/2/2
f 201/2/2 202/2/2 205/2/2
f 202/3/2 203/3/2 206/3/2
f 205/2/2 202/2/2 206/2/2
f 203/3/2 204/3/2 206/3/2
f 205/3/2 206/3/2 207/3/2
f 206/3/2 204/3/2 208/3/2
f 207/3/2 206/3/2 208/3/2
f 213/3/3 210/3/3 209/3/3
f 213/2/3 211/2/3 210/2/3
f 214/3/3 212/3/3 211/3/3
f 214/2/3 211/2/3 213/2/3
f 215/3/3 212/3/3 214/3/3
f 217/3/3 214/3/3 213/3/3
f 217/3/3 216/3/3 215/3/3
f 217/3/3 215/3/3 214/3/3
f 218/3/3 216/3/3 217/3/3
f 219/3/3 213/3/3 209/3/3
f 219/3/3 217/3/3 213/3/3
f 220/3/3 217/3/3 219/3/3
f 221/2/3 218/2/3 217/2/3
f 221/3/3 217/3/3 220/3/3
f 222/3/3 216/3/3 218/3/3
f 222/2/3 218/2/3 221/2/3
f 223/3/3 221/3/3 220/3/3
f 223/3/3 222/3/3 221/3/3
f 224/3/3 216/3/3 222/3/3
f 224/3/3 222/3/3 223/3/3
f 229/3/3 226/3/3 225/3/3
f 230/2/3 227/2/3 226/2/3
f 230/3/3 226/3/3 229/3/3
f 231/3/3 228/3/3 227/3/3
f 231/2/3 227/2/3 230/2/3
f 232/3/3 230/3/3 229/3/3
f 232/3/3 231/3/3 230/3/3
f 233/3/3 231/3/3 232/3/3
f 236/3/3 235/3/3 234/3/3
f 237/3/3 235/3/3 236/3/3
f 238/3/3 231/3/3 233/3/3
f 239/3/3 228/3/3 231/3/3
f 239/3/3 231/3/3 238/3/3
f 242/3/3 241/3/3 240/3/3
f 243/3/3 241/3/3 242/3/3
f 244/3/3 242/3/3 240/3/3
f 245/2/3 243/2/3 242/2/3
f 245/3/3 242/3/3 244/3/3
f 246/3/3 241/3/3 243/3/3
f 246/2/3 243/2/3 245/2/3
f 247/3/3 241/3/3 246/3/3
f 252/3/3 249/3/3 248/3/3
f 252/2/3 250/2/3 249/2/3
f 253/3/3 251/3/3 250/3/3
f 253/2/3 250/2/3 252/2/3
f 254/3/3 251/3/3 253/3/3
f 255/3/3 253/3/3 252/3/3
f 255/2/3 254/2/3 253/2/3
f 256/3/3 251/3/3 254/3/3
f 256/2/3 254/2/3 255/2/3
f 257/3/3 256/3/3 255/3/3
f 257/3/3 251/3/3 256/3/3
f 260/3/3 252/3/3 248/3/3
f 260/3/3 258/3/3 257/3/3
f 260/3/3 257/3/3 255/3/3
f 260/3/3 255/3/3 252/3/3
f 261/3/3 258/3/3 260/3/3
f 262/3/3 258/3/3 261/3/3
f 263/3/3 260/3/3 259/3/3
f 263/3/3 261/3/3 260/3/3
f 264/3/3 261/3/3 263/3/3
f 265/3/3 258/3/3 262/3/3
f 266/3/3 258/3/3 265/3/3
f 267/2/3 266/2/3 265/2/3
f 268/2/3 266/2/3 267/2/3
f 269/3/3 268/3/3 267/3/3
f 270/3/3 268/3/3 269/3/3
f 271/3/3 263/3/3 259/3/3
f 273/3/3 271/3/3 259/3/3
f 273/3/3 272/3/3 271/3/3
f 274/3/3 272/3/3 273/3/3
f 275/3/3 272/3/3 274/3/3
f 276/2/3 275/2/3 274/2/3
f 277/3/3 272/3/3 275/3/3
f 277/2/3 275/2/3 276/2/3
f 278/3/3 272/3/3 277/3/3
f 281/3/3 280/3/3 279/3/3
f 282/3/3 280/3/3 281/3/3
f 287/1/3 284/1/3 283/1/3
f 288/1/3 284/1/3 287/1/3
f 291/3/3 286/3/3 285/3/3
f 292/2/3 290/2/3 289/2/3
f 293/3/3 291/3/3 290/3/3
f 293/2/3 290/2/3 292/2/3
f 294/3/3 286/3/3 291/3/3
f 294/3/3 291/3/3 293/3/3
f 297/1/3 296/1/3 295/1/3
f 298/1/3 296/1/3 297/1/3
f 303/1/3 299/1/3 298/1/3
f 304/1/3 299/1/3 303/1/3
f 305/3/3 301/3/3 300/3/3
f 306/3/3 301/3/3 305/3/3
f 307/1/3 303/1/3 302/1/3
f 308/1/3 303/1/3 307/1/3
f 311/3/3 310/3/3 309/3/3
f 313/3/3 312/3/3 311/3/3
f 314/3/3 312/3/3 313/3/3
f 315/3/3 311/3/3 309/3/3
f 315/3/3 313/3/3 311/3/3
f 316/2/3 314/2/3 313/2/3
f 316/3/3 313/3/3 315/3/3
f 317/3/3 312/3/3 314/3/3
f 317/2/3 314/2/3 316/2/3
f 318/3/3 312/3/3 317/3/3
f 321/3/3 320/3/3 319/3/3
f 322/3/3 320/3/3 321/3/3
f 323/3/4 324/3/4 325/3/4
f 325/3/4 324/3/4 326/3/4
f 327/3/4 328/3/4 329/3/4
f 329/3/4 328/3/4 330/3/4
f 331/3/4 332/3/4 335/3/4
f 332/2/4 333/2/4 335/2/4
f 333/3/4 334/3/4 336/3/4
f 335/2/4 333/2/4 336/2/4
f 331/3/4 335/3/4 337/3/4
f 335/3/4 336/3/4 337/3/4
f 336/3/4 334/3/4 338/3/4
f 337/3/4 336/3/4 338/3/4
f 338/3/4 334/3/4 339/3/4
f 339/3/4 334/3/4 340/3/4
f 339/2/4 340/2/4 342/2/4
f 340/3/4 341/3/4 343/3/4
f 342/2/4 340/2/4 343/2/4
f 343/3/4 341/3/4 344/3/4
f 344/3/4 341/3/4 345/3/4
f 344/2/4 345/2/4 348/2/4
f 348/2/4 345/2/4 349/2/4
f 346/1/4 347/1/4 350/1/4
f 350/1/4 347/1/4 351/1/4
f 348/3/4 349/3/4 353/3/4
f 353/3/4 349/3/4 354/3/4
f 351/1/4 352/1/4 357/1/4
f 357/1/4 352/1/4 358/1/4
f 354/3/4 355/3/4 359/3/4
f 359/3/4 355/3/4 360/3/4
f 356/1/4 357/1/4 361/1/4
f 361/1/4 357/1/4 362/1/4
f 363/1/4 364/1/4 368/1/4
f 368/1/4 364/1/4 369/1/4
f 366/3/4 367/3/4 370/3/4
f 365/3/4 366/3/4 370/3/4
f 370/3/4 367/3/4 371/3/4
f 370/2/4 371/2/4 372/2/4
f 371/3/4 367/3/4 373/3/4
f 372/2/4 371/2/4 373/2/4
f 372/3/4 373/3/4 375/3/4
f 373/3/4 367/3/4 376/3/4
f 375/3/4 373/3/4 376/3/4
f 374/3/4 375/3/4 377/3/4
f 377/3/4 375/3/4 378/3/4
f 378/3/4 375/3/4 379/3/4
f 382/3/4 383/3/4 384/3/4
f 384/3/4 383/3/4 385/3/4
f 380/3/4 381/3/4 386/3/4
f 386/3/4 381/3/4 387/3/4
f 386/2/4 387/2/4 388/2/4
f 387/3/4 381/3/4 389/3/4
f 388/2/4 387/2/4 389/2/4
f 389/3/4 381/3/4 390/3/4
f 388/3/4 389/3/4 392/3/4
f 390/3/4 391/3/4 392/3/4
f 389/3/4 390/3/4 392/3/4
f 392/3/4 391/3/4 393/3/4
f 393/3/4 391/3/4 394/3/4
f 395/2/4 396/2/4 397/2/4
f 394/3/4 395/3/4 397/3/4
f 393/3/4 394/3/4 397/3/4
f 397/2/4 396/2/4 398/2/4
f 393/3/4 397/3/4 399/3/4
f 397/3/4 398/3/4 399/3/4
f 399/3/4 398/3/4 400/3/4
f 393/3/4 399/3/4 401/3/4
f 399/2/4 400/2/4 402/2/4
f 401/3/4 399/3/4 402/3/4
f 400/3/4 398/3/4 403/3/4
f 402/2/4 400/2/4 403/2/4
f 403/3/4 398/3/4 404/3/4
f 405/3/4 406/3/4 409/3/4
f 406/2/4 407/2/4 409/2/4
f 407/3/4 408/3/4 410/3/4
f 409/2/4 407/2/4 410/2/4
f 405/3/4 409/3/4 411/3/4
f 409/3/4 410/3/4 411/3/4
f 410/3/4 408/3/4 412/3/4
f 411/3/4 410/3/4 412/3/4
f 412/3/4 413/3/4 414/3/4
f 414/3/4 413/3/4 415/3/4
f 412/3/4 414/3/4 416/3/4
f 414/2/4 415/2/4 417/2/4
f 416/3/4 414/3/4 417/3/4
f 417/2/4 415/2/4 418/2/4
f 419/3/4 420/3/4 423/3/4
f 421/3/4 422/3/4 423/3/4
f 420/3/4 421/3/4 423/3/4
f 423/3/4 422/3/4 424/3/4
f 419/3/4 423/3/4 425/3/4
f 423/2/4 424/2/4 426/2/4
f 425/3/4 423/3/4 426/3/4
f 424/3/4 422/3/4 427/3/4
f 426/2/4 424/2/4 427/2/4
f 426/3/4 427/3/4 428/3/4
f 427/3/4 422/3/4 429/3/4
f 428/3/4 427/3/4 429/3/4
f 430/3/4 431/3/4 432/3/4
f 432/3/4 431/3/4 433/3/4
f 432/2/4 433/2/4 434/2/4
f 433/3/4 431/3/4 435/3/4
f 434/2/4 433/2/4 435/2/4
f 435/3/4 431/3/4 436/3/4
f 440/1/5 438/1/5 437/1/5
f 441/1/5 438/1/5 440/1/5
f 443/1/5 440/1/5 439/1/5
f 443/1/5 442/1/5 441/1/5
f 443/1/5 441/1/5 440/1/5
f 444/1/5 442/1/5 443/1/5
f 445/1/5 442/1/5 444/1/5
f 446/1/5 442/1/5 445/1/5
f 447/1/5 445/1/5 444/1/5
f 448/1/5 445/1/5 447/1/5
f 451/3/5 450/3/5 449/3/5
f 452/3/5 450/3/5 451/3/5
f 453/3/5 450/3/5 452/3/5
f 454/3/5 450/3/5 453/3/5
f 455/2/5 452/2/5 451/2/5
f 456/3/5 453/3/5 452/3/5
f 456/2/5 452/2/5 455/2/5
f 457/3/5 456/3/5 455/3/5
f 457/3/5 453/3/5 456/3/5
f 458/3/5 450/3/5 454/3/5
f 459/3/5 450/3/5 458/3/5
f 459/3/5 458/3/5 457/3/5
f 460/3/5 450/3/5 459/3/5
f 461/3/5 457/3/5 455/3/5
f 461/3/5 459/3/5 457/3/5
f 462/2/5 460/2/5 459/2/5
f 462/3/5 459/3/5 461/3/5
f 463/3/5 450/3/5 460/3/5
f 463/2/5 460/2/5 462/2/5
f 464/3/5 450/3/5 463/3/5
f 467/3/5 466/3/5 465/3/5
f 469/3/5 467/3/5 465/3/5
f 469/3/5 468/3/5 467/3/5
f 470/3/5 468/3/5 469/3/5
f 473/2/5 472/2/5 471/2/5
f 474/2/5 472/2/5 473/2/5
f 475/3/5 474/3/5 473/3/5
f 476/3/5 474/3/5 475/3/5
f 482/3/5 478/3/5 477/3/5
f 483/3/5 478/3/5 482/3/5
f 484/3/5 478/3/5 483/3/5
f 486/3/5 481/3/5 480/3/5
f 486/3/5 480/3/5 479/3/5
f 487/3/5 481/3/5 486/3/5
f 488/3/5 485/3/5 484/3/5
f 488/3/5 484/3/5 483/3/5
f 489/3/5 485/3/5 488/3/5
f 490/3/5 485/3/5 489/3/5
f 491/3/5 485/3/5 490/3/5
f 492/3/5 485/3/5 491/3/5
f 493/3/5 490/3/5 489/3/5
f 494/2/5 491/2/5 490/2/5
f 494/3/5 490/3/5 493/3/5
f 495/2/5 491/2/5 494/2/5
f 498/3/5 497/3/5 496/3/5
f 499/3/5 497/3/5 498/3/5
f 502/3/5 501/3/5 500/3/5
f 503/3/5 501/3/5 502/3/5
f 504/3/5 501/3/5 503/3/5
f 505/3/5 501/3/5 504/3/5
f 508/3/5 507/3/5 506/3/5
f 509/3/5 507/3/5 508/3/5
f 512/3/5 511/3/5 510/3/5
f 513/3/5 511/3/5 512/3/5
f 514/1/6 515/1/6 517/1/6
f 517/1/6 515/1/6 518/1/6
f 516/1/6 517/1/6 520/1/6
f 520/1/6 517/1/6 521/1/6
f 518/1/6 519/1/6 522/1/6
f 522/1/6 519/1/6 523/1/6
f 521/1/6 522/1/6 524/1/6
f 524/1/6 522/1/6 525/1/6
f 526/3/6 527/3/6 528/3/6
f 528/3/6 527/3/6 529/3/6
f 530/3/6 531/3/6 533/3/6
f 531/3/6 532/3/6 533/3/6
f 533/3/6 532/3/6 534/3/6
f 534/3/6 535/3/6 536/3/6
f 534/3/6 536/3/6 537/3/6
f 537/3/6 536/3/6 538/3/6
f 539/3/6 540/3/6 541/3/6
f 541/3/6 540/3/6 542/3/6
f 545/3/6 546/3/6 547/3/6
f 547/3/6 546/3/6 548/3/6
f 543/3/6 544/3/6 549/3/6
f 549/3/6 544/3/6 550/3/6
f 550/3/6 544/3/6 551/3/6
f 551/3/6 544/3/6 552/3/6
f 545/3/6 547/3/6 554/3/6
f 552/3/6 553/3/6 556/3/6
f 551/3/6 552/3/6 556/3/6
f 556/3/6 553/3/6 557/3/6
f 554/3/6 555/3/6 558/3/6
f 545/3/6 554/3/6 558/3/6
f 558/3/6 555/3/6 559/3/6
f 557/3/6 553/3/6 562/3/6
f 560/2/6 561/2/6 563/2/6
f 561/3/6 562/3/6 564/3/6
f 563/2/6 561/2/6 564/2/6
f 562/3/6 553/3/6 565/3/6
f 564/3/6 562/3/6 565/3/6
f 566/3/6 567/3/6 568/3/6
f 566/3/6 568/3/6 569/3/6
f 569/3/6 568/3/6 570/3/6
f 571/3/6 572/3/6 576/3/6
f 576/3/6 572/3/6 577/3/6
f 574/3/6 575/3/6 579/3/6
f 573/3/6 574/3/6 579/3/6
f 575/3/6 576/3/6 579/3/6
f 579/3/6 576/3/6 580/3/6
f 578/3/6 579/3/6 581/3/6
f 579/2/6 580/2/6 582/2/6
f 581/3/6 579/3/6 582/3/6
f 580/3/6 576/3/6 583/3/6
f 582/2/6 580/2/6 583/2/6
f 583/3/6 576/3/6 584/3/6
f 584/3/6 576/3/6 585/3/6
f 586/3/6 587/3/6 588/3/6
f 588/3/6 587/3/6 589/3/6
f 589/3/6 587/3/6 590/3/6
f 590/3/6 587/3/6 591/3/6
f 591/3/6 587/3/6 592/3/6
f 592/3/6 587/3/6 593/3/6
f 594/3/6 595/3/6 597/3/6
f 595/3/6 596/3/6 597/3/6
f 594/3/6 597/3/6 598/3/6
f 598/3/6 597/3/6 599/3/6
f 600/3/6 601/3/6 604/3/6
f 601/2/6 602/2/6 604/2/6
f 602/3/6 603/3/6 605/3/6
f 604/2/6 602/2/6 605/2/6
f 605/3/6 603/3/6 606/3/6
f 604/3/6 605/3/6 608/3/6
f 606/3/6 607/3/6 608/3/6
f 605/3/6 606/3/6 608/3/6
f 608/3/6 607/3/6 609/3/6
f 600/3/6 604/3/6 610/3/6
f 604/3/6 608/3/6 610/3/6
f 610/3/6 608/3/6 611/3/6
f 609/3/6 607/3/6 612/3/6
f 612/3/6 607/3/6 613/3/6
f 600/3/6 610/3/6 614/3/6
f 610/2/6 611/2/6 615/2/6
f 614/3/6 610/3/6 615/3/6
f 611/3/6 608/3/6 616/3/6
f 615/2/6 611/2/6 616/2/6
f 616/3/6 608/3/6 617/3/6
f 612/2/6 613/2/6 618/2/6
f 613/3/6 607/3/6 619/3/6
f 618/2/6 613/2/6 619/2/6
f 617/3/6 618/3/6 620/3/6
f 618/3/6 619/3/6 620/3/6
f 619/3/6 607/3/6 621/3/6
f 620/3/6 619/3/6 621/3/6
f 622/3/6 623/3/6 624/3/6
f 624/3/6 623/3/6 625/3/6
