# MagicaVoxel @ Ephtracy

# group
o 

# material
mtllib red_bush2.mtl
usemtl palette

# normals
vn -1 0 0
vn 1 0 0
vn 0 0 1
vn 0 0 -1
vn 0 -1 0
vn 0 1 0

# texcoords
vt 0.0644531 0.5
vt 0.177734 0.5
vt 0.583984 0.5

# verts
v 0 2.5 -0.3
v 0 2.5 -0.7
v 0 2.7 -0.5
v 0 2.7 -0.6
v 0 2.8 -0.5
v 0 2.8 -0.6
v 0 2.9 -0.3
v 0 2.9 -0.7
v 0.1 2.9 -0.4
v 0.1 2.9 -0.6
v 0.1 3 -0.4
v 0.1 3 -0.6
v 0.2 2.5 -0.7
v 0.2 2.5 -1
v 0.2 2.8 -0.7
v 0.2 2.8 -1
v 0.3 2.9 -0.3
v 0.3 2.9 -0.4
v 0.3 2.9 -0.6
v 0.3 2.9 -0.7
v 0.3 3 -0.3
v 0.3 3 -0.4
v 0.3 3 -0.6
v 0.3 3.2 -0.3
v 0.3 3.2 -0.7
v 0.4 2.3 -0.3
v 0.4 2.3 -0.9
v 0.4 2.4 -0.7
v 0.4 2.4 -0.8
v 0.4 2.5 -0.3
v 0.4 2.5 -0.7
v 0.4 2.5 -0.8
v 0.4 2.5 -0.9
v 0.4 2.5 -1
v 0.4 2.5 -1.2
v 0.4 2.7 -0.1
v 0.4 2.7 -0.3
v 0.4 2.8 -0.7
v 0.4 2.8 -0.9
v 0.4 2.8 -1
v 0.4 2.8 -1.2
v 0.4 2.9 -0.3
v 0.4 2.9 -0.9
v 0.4 2.9 -1
v 0.4 3 -0.3
v 0.4 3 -0.9
v 0.4 3 -1
v 0.4 3.1 -0.1
v 0.4 3.1 -0.3
v 0.4 3.1 -0.7
v 0.4 3.1 -0.9
v 0.5 2 -0.5
v 0.5 2 -0.7
v 0.5 2.1 -0.5
v 0.5 2.1 -0.7
v 0.5 2.4 0
v 0.5 2.4 -0.3
v 0.5 2.5 -0.2
v 0.5 2.5 -0.3
v 0.5 2.6 -0.2
v 0.5 2.6 -0.3
v 0.5 2.7 0
v 0.5 2.7 -0.1
v 0.5 2.7 -0.3
v 0.6 2 -0.4
v 0.6 2 -0.5
v 0.6 2 -0.7
v 0.6 2 -0.8
v 0.6 2.1 -0.4
v 0.6 2.1 -0.5
v 0.6 2.1 -0.7
v 0.6 2.1 -0.8
v 0.6 2.3 -0.5
v 0.6 2.3 -0.7
v 0.6 2.7 0
v 0.6 2.7 -0.1
v 0.6 2.9 0
v 0.6 2.9 -0.1
v 0.6 3.1 -0.7
v 0.6 3.1 -0.8
v 0.6 3.2 -0.5
v 0.6 3.2 -0.6
v 0.6 3.2 -0.7
v 0.6 3.2 -0.8
v 0.6 3.3 -0.5
v 0.6 3.3 -0.6
v 0.6 3.3 -0.7
v 0.7 2.8 -1
v 0.7 2.8 -1.1
v 0.7 3 -1
v 0.7 3 -1.1
v 0.6 3 -0.8
v 0.6 3 -0.9
v 0.6 3.1 -0.8
v 0.6 3.1 -0.9
v 0.7 2.5 -1.1
v 0.7 2.5 -1.2
v 0.7 2.8 -1.1
v 0.7 2.8 -1.2
v 0.7 3.1 -0.3
v 0.7 3.1 -0.4
v 0.7 3.2 -0.3
v 0.7 3.2 -0.4
v 0.8 2 -0.4
v 0.8 2 -0.5
v 0.8 2 -0.7
v 0.8 2 -0.8
v 0.8 2.1 -0.4
v 0.8 2.1 -0.5
v 0.8 2.1 -0.7
v 0.8 2.1 -0.8
v 0.8 2.3 -0.5
v 0.8 2.3 -0.7
v 0.8 2.4 0
v 0.8 2.4 -0.1
v 0.8 2.5 0
v 0.8 2.5 -0.1
v 0.8 2.6 0
v 0.8 2.6 -0.1
v 0.8 3.2 -0.5
v 0.8 3.2 -0.7
v 0.8 3.3 -0.5
v 0.8 3.3 -0.7
v 0.9 2 -0.5
v 0.9 2 -0.7
v 0.9 2.1 -0.5
v 0.9 2.1 -0.7
v 0.9 2.4 -0.1
v 0.9 2.4 -0.3
v 0.9 2.5 -0.9
v 0.9 2.5 -1.1
v 0.9 2.6 0
v 0.9 2.6 -0.1
v 0.9 2.6 -0.2
v 0.9 2.6 -0.3
v 0.9 2.6 -1
v 0.9 2.6 -1.1
v 0.9 2.7 -0.9
v 0.9 2.7 -1
v 0.9 2.7 -1.1
v 0.9 2.9 0
v 0.9 2.9 -0.1
v 0.9 2.9 -0.2
v 0.9 2.9 -0.4
v 0.9 3.1 -0.1
v 0.9 3.1 -0.4
v 1 2.3 -0.3
v 1 2.3 -0.9
v 1 2.4 -0.3
v 1 2.4 -0.4
v 1 2.4 -0.5
v 1 2.4 -0.7
v 1 2.4 -0.8
v 1 2.5 -0.5
v 1 2.5 -0.7
v 1 2.5 -0.8
v 1 2.5 -0.9
v 1 2.7 -0.9
v 1 2.7 -1.1
v 1 2.9 -0.4
v 1 2.9 -0.6
v 1 2.9 -0.8
v 1 2.9 -0.9
v 1 3 -0.6
v 1 3 -0.8
v 1 3 -1.1
v 1 3.1 -0.4
v 1 3.1 -0.5
v 1 3.2 -0.4
v 1 3.2 -0.5
v 1 3.2 -0.8
v 1.1 2.4 -0.3
v 1.1 2.4 -0.4
v 1.1 2.4 -0.5
v 1.1 2.5 -0.3
v 1.1 2.5 -0.4
v 1.1 2.5 -0.5
v 1.1 2.6 -0.3
v 1.1 2.6 -0.5
v 1.2 2.6 -0.2
v 1.2 2.6 -0.5
v 1.2 2.7 -0.2
v 1.2 2.7 -0.3
v 1.2 2.8 -0.2
v 1.2 2.8 -0.3
v 1.2 2.9 -0.2
v 1.2 2.9 -0.5
v 1.2 2.9 -0.6
v 1.2 2.9 -0.8
v 1.2 3 -0.6
v 1.2 3 -0.8
v 1.4 2.5 -0.5
v 1.4 2.5 -0.9
v 1.4 2.7 -0.6
v 1.4 2.7 -0.7
v 1.4 2.8 -0.6
v 1.4 2.8 -0.7
v 1.4 2.9 -0.5
v 1.4 2.9 -0.9
v 0.5 2.4 0
v 0.5 2.7 0
v 0.6 2.7 0
v 0.6 2.9 0
v 0.7 2.5 0
v 0.7 2.6 0
v 0.8 2.4 0
v 0.8 2.5 0
v 0.8 2.6 0
v 0.9 2.6 0
v 0.9 2.9 0
v 0.4 2.7 -0.1
v 0.4 3.1 -0.1
v 0.5 2.7 -0.1
v 0.6 2.7 -0.1
v 0.6 2.9 -0.1
v 0.7 2.9 -0.1
v 0.7 3 -0.1
v 0.8 2.4 -0.1
v 0.8 2.5 -0.1
v 0.8 2.6 -0.1
v 0.8 2.9 -0.1
v 0.8 3 -0.1
v 0.9 2.4 -0.1
v 0.9 2.6 -0.1
v 0.9 2.9 -0.1
v 0.9 3.1 -0.1
v 0.9 2.6 -0.2
v 0.9 2.9 -0.2
v 1.1 2.7 -0.2
v 1.1 2.8 -0.2
v 1.2 2.6 -0.2
v 1.2 2.7 -0.2
v 1.2 2.8 -0.2
v 1.2 2.9 -0.2
v 0 2.5 -0.3
v 0 2.9 -0.3
v 0.1 2.6 -0.3
v 0.1 2.7 -0.3
v 0.2 2.6 -0.3
v 0.2 2.7 -0.3
v 0.3 2.9 -0.3
v 0.3 3 -0.3
v 0.3 3.2 -0.3
v 0.4 2.3 -0.3
v 0.4 2.5 -0.3
v 0.4 2.7 -0.3
v 0.4 2.9 -0.3
v 0.4 3 -0.3
v 0.4 3.1 -0.3
v 0.4 3.2 -0.3
v 0.5 2.4 -0.3
v 0.5 2.5 -0.3
v 0.5 2.6 -0.3
v 0.5 2.7 -0.3
v 0.5 3.1 -0.3
v 0.5 3.2 -0.3
v 0.7 3.1 -0.3
v 0.7 3.2 -0.3
v 0.9 2.4 -0.3
v 0.9 2.6 -0.3
v 1 2.3 -0.3
v 1 2.4 -0.3
v 1 2.5 -0.3
v 1.1 2.4 -0.3
v 1.1 2.5 -0.3
v 1.1 2.6 -0.3
v 0.1 2.9 -0.4
v 0.1 3 -0.4
v 0.3 2.9 -0.4
v 0.3 3 -0.4
v 0.6 2 -0.4
v 0.6 2.1 -0.4
v 0.7 3.1 -0.4
v 0.7 3.2 -0.4
v 0.8 2 -0.4
v 0.8 2.1 -0.4
v 0.9 2.9 -0.4
v 0.9 3.1 -0.4
v 0.9 3.2 -0.4
v 1 2.9 -0.4
v 1 3.1 -0.4
v 1 3.2 -0.4
v 0.5 2 -0.5
v 0.5 2.1 -0.5
v 0.6 2 -0.5
v 0.6 2.1 -0.5
v 0.6 2.3 -0.5
v 0.6 3.2 -0.5
v 0.6 3.3 -0.5
v 0.8 2 -0.5
v 0.8 2.1 -0.5
v 0.8 2.3 -0.5
v 0.8 3.2 -0.5
v 0.8 3.3 -0.5
v 0.9 2 -0.5
v 0.9 2.1 -0.5
v 1.1 2.5 -0.5
v 1.1 2.6 -0.5
v 1.2 2.6 -0.5
v 1.2 2.9 -0.5
v 1.4 2.5 -0.5
v 1.4 2.9 -0.5
v 1 2.9 -0.6
v 1 3 -0.6
v 1.2 2.9 -0.6
v 1.2 3 -0.6
v 1 2.4 -0.5
v 1 2.5 -0.5
v 1.1 2.4 -0.5
v 1.1 2.5 -0.5
v 0.1 2.9 -0.6
v 0.1 3 -0.6
v 0.3 2.9 -0.6
v 0.3 3 -0.6
v 0 2.5 -0.7
v 0 2.9 -0.7
v 0.2 2.5 -0.7
v 0.2 2.8 -0.7
v 0.3 2.9 -0.7
v 0.3 3.2 -0.7
v 0.4 2.8 -0.7
v 0.4 3.1 -0.7
v 0.5 2 -0.7
v 0.5 2.1 -0.7
v 0.6 2 -0.7
v 0.6 2.1 -0.7
v 0.6 2.3 -0.7
v 0.6 3.1 -0.7
v 0.6 3.2 -0.7
v 0.6 3.3 -0.7
v 0.7 3.2 -0.7
v 0.7 3.3 -0.7
v 0.8 2 -0.7
v 0.8 2.1 -0.7
v 0.8 2.3 -0.7
v 0.8 3.2 -0.7
v 0.8 3.3 -0.7
v 0.9 2 -0.7
v 0.9 2.1 -0.7
v 0.6 2 -0.8
v 0.6 2.1 -0.8
v 0.6 3 -0.8
v 0.6 3.1 -0.8
v 0.6 3.2 -0.8
v 0.8 2 -0.8
v 0.8 2.1 -0.8
v 1 2.9 -0.8
v 1 3 -0.8
v 1 3.2 -0.8
v 1.2 2.9 -0.8
v 1.2 3 -0.8
v 0.4 2.3 -0.9
v 0.4 2.5 -0.9
v 0.4 3 -0.9
v 0.4 3.1 -0.9
v 0.6 3 -0.9
v 0.6 3.1 -0.9
v 0.9 2.5 -0.9
v 0.9 2.7 -0.9
v 1 2.3 -0.9
v 1 2.5 -0.9
v 1 2.7 -0.9
v 1 2.9 -0.9
v 1.1 2.7 -0.9
v 1.1 2.8 -0.9
v 1.2 2.7 -0.9
v 1.2 2.8 -0.9
v 1.4 2.5 -0.9
v 1.4 2.9 -0.9
v 0.2 2.5 -1
v 0.2 2.8 -1
v 0.4 2.5 -1
v 0.4 2.8 -1
v 0.4 2.9 -1
v 0.4 3 -1
v 0.5 2.8 -1
v 0.5 2.9 -1
v 0.7 2.8 -1
v 0.7 3 -1
v 0.7 2.5 -1.1
v 0.7 2.8 -1.1
v 0.7 3 -1.1
v 0.8 2.6 -1.1
v 0.8 2.7 -1.1
v 0.9 2.5 -1.1
v 0.9 2.6 -1.1
v 0.9 2.7 -1.1
v 1 2.7 -1.1
v 1 3 -1.1
v 0.4 2.5 -1.2
v 0.4 2.8 -1.2
v 0.5 2.5 -1.2
v 0.5 2.6 -1.2
v 0.6 2.5 -1.2
v 0.6 2.6 -1.2
v 0.7 2.5 -1.2
v 0.7 2.8 -1.2
v 0.6 2 -0.4
v 0.8 2 -0.4
v 0.5 2 -0.5
v 0.6 2 -0.5
v 0.8 2 -0.5
v 0.9 2 -0.5
v 0.5 2 -0.7
v 0.6 2 -0.7
v 0.8 2 -0.7
v 0.9 2 -0.7
v 0.6 2 -0.8
v 0.8 2 -0.8
v 0.4 2.3 -0.3
v 1 2.3 -0.3
v 0.6 2.3 -0.5
v 0.8 2.3 -0.5
v 0.6 2.3 -0.7
v 0.8 2.3 -0.7
v 0.4 2.3 -0.9
v 1 2.3 -0.9
v 0.5 2.4 0
v 0.8 2.4 0
v 0.8 2.4 -0.1
v 0.9 2.4 -0.1
v 0.5 2.4 -0.3
v 0.9 2.4 -0.3
v 1 2.4 -0.3
v 1.1 2.4 -0.3
v 1 2.4 -0.4
v 1.1 2.4 -0.4
v 1 2.4 -0.5
v 1.1 2.4 -0.5
v 0 2.5 -0.3
v 0.4 2.5 -0.3
v 1 2.5 -0.5
v 1.1 2.5 -0.5
v 1.4 2.5 -0.5
v 0 2.5 -0.7
v 0.2 2.5 -0.7
v 0.4 2.5 -0.7
v 1 2.5 -0.7
v 0.4 2.5 -0.8
v 1 2.5 -0.8
v 0.4 2.5 -0.9
v 0.9 2.5 -0.9
v 1 2.5 -0.9
v 1.4 2.5 -0.9
v 0.2 2.5 -1
v 0.4 2.5 -1
v 0.5 2.5 -1.1
v 0.6 2.5 -1.1
v 0.7 2.5 -1.1
v 0.9 2.5 -1.1
v 0.4 2.5 -1.2
v 0.5 2.5 -1.2
v 0.6 2.5 -1.2
v 0.7 2.5 -1.2
v 0.8 2.6 0
v 0.9 2.6 0
v 0.8 2.6 -0.1
v 0.9 2.6 -0.1
v 0.9 2.6 -0.2
v 1.2 2.6 -0.2
v 0.9 2.6 -0.3
v 1.1 2.6 -0.3
v 1.1 2.6 -0.5
v 1.2 2.6 -0.5
v 0.4 2.7 -0.1
v 0.5 2.7 -0.1
v 0.4 2.7 -0.3
v 0.5 2.7 -0.3
v 0.9 2.7 -0.9
v 1 2.7 -0.9
v 0.9 2.7 -1
v 0.9 2.7 -1.1
v 1 2.7 -1.1
v 0.6 2.1 -0.4
v 0.8 2.1 -0.4
v 0.5 2.1 -0.5
v 0.6 2.1 -0.5
v 0.8 2.1 -0.5
v 0.9 2.1 -0.5
v 0.5 2.1 -0.7
v 0.6 2.1 -0.7
v 0.8 2.1 -0.7
v 0.9 2.1 -0.7
v 0.6 2.1 -0.8
v 0.8 2.1 -0.8
v 0.5 2.7 0
v 0.6 2.7 0
v 0.5 2.7 -0.1
v 0.6 2.7 -0.1
v 0.2 2.8 -0.7
v 0.4 2.8 -0.7
v 0.4 2.8 -0.9
v 0.2 2.8 -1
v 0.4 2.8 -1
v 0.5 2.8 -1
v 0.7 2.8 -1
v 0.7 2.8 -1.1
v 0.4 2.8 -1.2
v 0.7 2.8 -1.2
v 0.6 2.9 0
v 0.9 2.9 0
v 0.6 2.9 -0.1
v 0.7 2.9 -0.1
v 0.8 2.9 -0.1
v 0.9 2.9 -0.1
v 0.9 2.9 -0.2
v 1.2 2.9 -0.2
v 0 2.9 -0.3
v 0.3 2.9 -0.3
v 0.1 2.9 -0.4
v 0.3 2.9 -0.4
v 0.9 2.9 -0.4
v 1 2.9 -0.4
v 1.2 2.9 -0.5
v 1.4 2.9 -0.5
v 0.1 2.9 -0.6
v 0.3 2.9 -0.6
v 1 2.9 -0.6
v 1.2 2.9 -0.6
v 0 2.9 -0.7
v 0.3 2.9 -0.7
v 1 2.9 -0.8
v 1.2 2.9 -0.8
v 1 2.9 -0.9
v 1.4 2.9 -0.9
v 0.1 3 -0.4
v 0.3 3 -0.4
v 0.1 3 -0.6
v 0.3 3 -0.6
v 1 3 -0.6
v 1.2 3 -0.6
v 0.6 3 -0.8
v 1 3 -0.8
v 1.2 3 -0.8
v 0.4 3 -0.9
v 0.6 3 -0.9
v 0.4 3 -1
v 0.7 3 -1
v 0.7 3 -1.1
v 1 3 -1.1
v 0.4 3.1 -0.1
v 0.9 3.1 -0.1
v 0.4 3.1 -0.3
v 0.5 3.1 -0.3
v 0.7 3.1 -0.3
v 0.7 3.1 -0.4
v 0.9 3.1 -0.4
v 0.4 3.1 -0.7
v 0.6 3.1 -0.7
v 0.6 3.1 -0.8
v 0.4 3.1 -0.9
v 0.6 3.1 -0.9
v 0.3 3.2 -0.3
v 0.4 3.2 -0.3
v 0.5 3.2 -0.3
v 0.7 3.2 -0.3
v 0.4 3.2 -0.4
v 0.5 3.2 -0.4
v 0.7 3.2 -0.4
v 0.9 3.2 -0.4
v 1 3.2 -0.4
v 0.6 3.2 -0.5
v 0.8 3.2 -0.5
v 0.9 3.2 -0.5
v 1 3.2 -0.5
v 0.6 3.2 -0.6
v 0.3 3.2 -0.7
v 0.6 3.2 -0.7
v 0.7 3.2 -0.7
v 0.8 3.2 -0.7
v 0.6 3.2 -0.8
v 1 3.2 -0.8
v 0.6 3.3 -0.5
v 0.8 3.3 -0.5
v 0.6 3.3 -0.6
v 0.7 3.3 -0.6
v 0.6 3.3 -0.7
v 0.7 3.3 -0.7
v 0.8 3.3 -0.7

# faces
f 3/3/1 2/3/1 1/3/1
f 4/3/1 2/3/1 3/3/1
f 5/3/1 3/3/1 1/3/1
f 5/1/1 4/1/1 3/1/1
f 6/3/1 2/3/1 4/3/1
f 6/1/1 4/1/1 5/1/1
f 7/3/1 5/3/1 1/3/1
f 7/3/1 6/3/1 5/3/1
f 8/3/1 2/3/1 6/3/1
f 8/3/1 6/3/1 7/3/1
f 11/3/1 10/3/1 9/3/1
f 12/3/1 10/3/1 11/3/1
f 15/3/1 14/3/1 13/3/1
f 16/3/1 14/3/1 15/3/1
f 21/1/1 18/1/1 17/1/1
f 22/1/1 18/1/1 21/1/1
f 23/3/1 20/3/1 19/3/1
f 24/3/1 22/3/1 21/3/1
f 24/3/1 23/3/1 22/3/1
f 25/3/1 20/3/1 23/3/1
f 25/3/1 23/3/1 24/3/1
f 28/3/1 27/3/1 26/3/1
f 29/3/1 27/3/1 28/3/1
f 30/3/1 28/3/1 26/3/1
f 31/1/1 29/1/1 28/1/1
f 31/3/1 28/3/1 30/3/1
f 32/3/1 27/3/1 29/3/1
f 32/1/1 29/1/1 31/1/1
f 33/3/1 27/3/1 32/3/1
f 40/3/1 35/3/1 34/3/1
f 41/3/1 35/3/1 40/3/1
f 42/3/1 37/3/1 36/3/1
f 43/3/1 39/3/1 38/3/1
f 43/1/1 40/1/1 39/1/1
f 44/1/1 40/1/1 43/1/1
f 45/3/1 42/3/1 36/3/1
f 46/3/1 43/3/1 38/3/1
f 46/3/1 44/3/1 43/3/1
f 47/3/1 44/3/1 46/3/1
f 48/3/1 45/3/1 36/3/1
f 49/3/1 45/3/1 48/3/1
f 50/3/1 46/3/1 38/3/1
f 51/3/1 46/3/1 50/3/1
f 54/2/1 53/2/1 52/2/1
f 55/2/1 53/2/1 54/2/1
f 58/3/1 57/3/1 56/3/1
f 59/3/1 57/3/1 58/3/1
f 60/3/1 58/3/1 56/3/1
f 60/1/1 59/1/1 58/1/1
f 61/1/1 59/1/1 60/1/1
f 62/3/1 60/3/1 56/3/1
f 62/3/1 61/3/1 60/3/1
f 63/3/1 61/3/1 62/3/1
f 64/3/1 61/3/1 63/3/1
f 69/2/1 66/2/1 65/2/1
f 70/2/1 66/2/1 69/2/1
f 71/2/1 68/2/1 67/2/1
f 72/2/1 68/2/1 71/2/1
f 73/2/1 71/2/1 70/2/1
f 74/2/1 71/2/1 73/2/1
f 77/3/1 76/3/1 75/3/1
f 78/3/1 76/3/1 77/3/1
f 83/3/1 80/3/1 79/3/1
f 84/3/1 80/3/1 83/3/1
f 85/3/1 82/3/1 81/3/1
f 86/1/1 83/1/1 82/1/1
f 86/3/1 82/3/1 85/3/1
f 87/1/1 83/1/1 86/1/1
f 90/3/1 89/3/1 88/3/1
f 91/3/1 89/3/1 90/3/1
f 92/3/2 93/3/2 94/3/2
f 94/3/2 93/3/2 95/3/2
f 96/3/2 97/3/2 98/3/2
f 98/3/2 97/3/2 99/3/2
f 100/3/2 101/3/2 102/3/2
f 102/3/2 101/3/2 103/3/2
f 104/2/2 105/2/2 108/2/2
f 108/2/2 105/2/2 109/2/2
f 106/2/2 107/2/2 110/2/2
f 110/2/2 107/2/2 111/2/2
f 109/2/2 110/2/2 112/2/2
f 112/2/2 110/2/2 113/2/2
f 114/3/2 115/3/2 116/3/2
f 116/3/2 115/3/2 117/3/2
f 116/1/2 117/1/2 118/1/2
f 118/1/2 117/1/2 119/1/2
f 120/3/2 121/3/2 122/3/2
f 122/3/2 121/3/2 123/3/2
f 124/2/2 125/2/2 126/2/2
f 126/2/2 125/2/2 127/2/2
f 128/3/2 129/3/2 133/3/2
f 133/3/2 129/3/2 134/3/2
f 134/3/2 129/3/2 135/3/2
f 130/3/2 131/3/2 136/3/2
f 136/3/2 131/3/2 137/3/2
f 130/3/2 136/3/2 138/3/2
f 136/1/2 137/1/2 139/1/2
f 138/3/2 136/3/2 139/3/2
f 139/1/2 137/1/2 140/1/2
f 132/3/2 133/3/2 141/3/2
f 133/3/2 134/3/2 141/3/2
f 141/3/2 134/3/2 142/3/2
f 142/3/2 134/3/2 143/3/2
f 143/3/2 144/3/2 145/3/2
f 142/3/2 143/3/2 145/3/2
f 145/3/2 144/3/2 146/3/2
f 147/3/2 148/3/2 149/3/2
f 149/3/2 148/3/2 150/3/2
f 150/3/2 148/3/2 151/3/2
f 151/3/2 148/3/2 152/3/2
f 152/3/2 148/3/2 153/3/2
f 151/3/2 152/3/2 154/3/2
f 152/1/2 153/1/2 155/1/2
f 154/3/2 152/3/2 155/3/2
f 153/3/2 148/3/2 156/3/2
f 155/1/2 153/1/2 156/1/2
f 156/3/2 148/3/2 157/3/2
f 158/3/2 159/3/2 163/3/2
f 160/3/2 161/3/2 164/3/2
f 162/3/2 163/3/2 165/3/2
f 163/3/2 159/3/2 166/3/2
f 165/3/2 163/3/2 166/3/2
f 160/3/2 164/3/2 167/3/2
f 164/3/2 165/3/2 167/3/2
f 167/3/2 165/3/2 168/3/2
f 167/1/2 168/1/2 169/1/2
f 168/3/2 165/3/2 170/3/2
f 169/1/2 168/1/2 170/1/2
f 170/3/2 165/3/2 171/3/2
f 172/1/2 173/1/2 175/1/2
f 173/3/2 174/3/2 176/3/2
f 175/1/2 173/1/2 176/1/2
f 176/3/2 174/3/2 177/3/2
f 175/3/2 176/3/2 178/3/2
f 176/3/2 177/3/2 178/3/2
f 178/3/2 177/3/2 179/3/2
f 180/3/2 181/3/2 182/3/2
f 182/3/2 181/3/2 183/3/2
f 182/1/2 183/1/2 184/1/2
f 183/3/2 181/3/2 185/3/2
f 184/1/2 183/1/2 185/1/2
f 184/3/2 185/3/2 186/3/2
f 185/3/2 181/3/2 187/3/2
f 186/3/2 185/3/2 187/3/2
f 188/3/2 189/3/2 190/3/2
f 190/3/2 189/3/2 191/3/2
f 192/3/2 193/3/2 194/3/2
f 194/3/2 193/3/2 195/3/2
f 192/3/2 194/3/2 196/3/2
f 194/1/2 195/1/2 196/1/2
f 195/3/2 193/3/2 197/3/2
f 196/1/2 195/1/2 197/1/2
f 192/3/2 196/3/2 198/3/2
f 196/3/2 197/3/2 198/3/2
f 197/3/2 193/3/2 199/3/2
f 198/3/2 197/3/2 199/3/2
f 202/3/3 201/3/3 200/3/3
f 204/3/3 202/3/3 200/3/3
f 204/3/3 203/3/3 202/3/3
f 205/3/3 203/3/3 204/3/3
f 206/3/3 204/3/3 200/3/3
f 207/1/3 205/1/3 204/1/3
f 207/3/3 204/3/3 206/3/3
f 208/3/3 203/3/3 205/3/3
f 208/1/3 205/1/3 207/1/3
f 209/3/3 203/3/3 208/3/3
f 210/3/3 203/3/3 209/3/3
f 213/3/3 212/3/3 211/3/3
f 214/3/3 212/3/3 213/3/3
f 215/3/3 212/3/3 214/3/3
f 216/3/3 212/3/3 215/3/3
f 217/3/3 212/3/3 216/3/3
f 221/1/3 217/1/3 216/1/3
f 222/3/3 212/3/3 217/3/3
f 222/1/3 217/1/3 221/1/3
f 223/3/3 220/3/3 219/3/3
f 223/3/3 219/3/3 218/3/3
f 224/3/3 220/3/3 223/3/3
f 225/3/3 222/3/3 221/3/3
f 226/3/3 212/3/3 222/3/3
f 226/3/3 222/3/3 225/3/3
f 229/3/3 228/3/3 227/3/3
f 230/3/3 228/3/3 229/3/3
f 231/3/3 229/3/3 227/3/3
f 232/1/3 230/1/3 229/1/3
f 232/3/3 229/3/3 231/3/3
f 233/3/3 228/3/3 230/3/3
f 233/1/3 230/1/3 232/1/3
f 234/3/3 228/3/3 233/3/3
f 237/3/3 236/3/3 235/3/3
f 238/3/3 236/3/3 237/3/3
f 239/3/3 237/3/3 235/3/3
f 239/1/3 238/1/3 237/1/3
f 240/3/3 236/3/3 238/3/3
f 240/1/3 238/1/3 239/1/3
f 241/3/3 240/3/3 239/3/3
f 241/3/3 236/3/3 240/3/3
f 245/3/3 239/3/3 235/3/3
f 245/3/3 241/3/3 239/3/3
f 246/3/3 241/3/3 245/3/3
f 247/1/3 242/1/3 241/1/3
f 247/3/3 241/3/3 246/3/3
f 248/3/3 243/3/3 242/3/3
f 248/1/3 242/1/3 247/1/3
f 249/3/3 243/3/3 248/3/3
f 250/3/3 243/3/3 249/3/3
f 251/3/3 246/3/3 245/3/3
f 251/3/3 245/3/3 244/3/3
f 252/3/3 246/3/3 251/3/3
f 253/3/3 246/3/3 252/3/3
f 254/3/3 246/3/3 253/3/3
f 255/1/3 250/1/3 249/1/3
f 256/1/3 250/1/3 255/1/3
f 257/3/3 256/3/3 255/3/3
f 258/3/3 256/3/3 257/3/3
f 259/3/3 251/3/3 244/3/3
f 261/3/3 259/3/3 244/3/3
f 261/3/3 260/3/3 259/3/3
f 262/3/3 260/3/3 261/3/3
f 263/3/3 260/3/3 262/3/3
f 264/1/3 263/1/3 262/1/3
f 265/3/3 260/3/3 263/3/3
f 265/1/3 263/1/3 264/1/3
f 266/3/3 260/3/3 265/3/3
f 269/3/3 268/3/3 267/3/3
f 270/3/3 268/3/3 269/3/3
f 275/2/3 272/2/3 271/2/3
f 276/2/3 272/2/3 275/2/3
f 278/3/3 274/3/3 273/3/3
f 279/3/3 274/3/3 278/3/3
f 280/3/3 278/3/3 277/3/3
f 281/1/3 279/1/3 278/1/3
f 281/3/3 278/3/3 280/3/3
f 282/1/3 279/1/3 281/1/3
f 285/2/3 284/2/3 283/2/3
f 286/2/3 284/2/3 285/2/3
f 291/2/3 287/2/3 286/2/3
f 292/2/3 287/2/3 291/2/3
f 293/3/3 289/3/3 288/3/3
f 294/3/3 289/3/3 293/3/3
f 295/2/3 291/2/3 290/2/3
f 296/2/3 291/2/3 295/2/3
f 299/3/3 298/3/3 297/3/3
f 301/3/3 299/3/3 297/3/3
f 301/3/3 300/3/3 299/3/3
f 302/3/3 300/3/3 301/3/3
f 305/3/3 304/3/3 303/3/3
f 306/3/3 304/3/3 305/3/3
f 307/3/4 308/3/4 309/3/4
f 309/3/4 308/3/4 310/3/4
f 311/3/4 312/3/4 313/3/4
f 313/3/4 312/3/4 314/3/4
f 315/3/4 316/3/4 317/3/4
f 317/3/4 316/3/4 318/3/4
f 318/3/4 316/3/4 319/3/4
f 318/3/4 319/3/4 321/3/4
f 319/3/4 320/3/4 321/3/4
f 321/3/4 320/3/4 322/3/4
f 323/2/4 324/2/4 325/2/4
f 325/2/4 324/2/4 326/2/4
f 322/3/4 320/3/4 328/3/4
f 328/3/4 320/3/4 329/3/4
f 329/1/4 330/1/4 331/1/4
f 331/1/4 330/1/4 332/1/4
f 326/2/4 327/2/4 334/2/4
f 334/2/4 327/2/4 335/2/4
f 331/3/4 332/3/4 336/3/4
f 336/3/4 332/3/4 337/3/4
f 333/2/4 334/2/4 338/2/4
f 338/2/4 334/2/4 339/2/4
f 340/2/4 341/2/4 345/2/4
f 345/2/4 341/2/4 346/2/4
f 343/3/4 344/3/4 348/3/4
f 342/3/4 343/3/4 348/3/4
f 348/3/4 344/3/4 349/3/4
f 347/3/4 348/3/4 350/3/4
f 350/3/4 348/3/4 351/3/4
f 354/3/4 355/3/4 356/3/4
f 356/3/4 355/3/4 357/3/4
f 352/3/4 353/3/4 358/3/4
f 352/3/4 358/3/4 360/3/4
f 358/3/4 359/3/4 360/3/4
f 360/3/4 359/3/4 361/3/4
f 361/3/4 359/3/4 362/3/4
f 362/3/4 363/3/4 364/3/4
f 361/3/4 362/3/4 364/3/4
f 364/3/4 363/3/4 365/3/4
f 361/3/4 364/3/4 366/3/4
f 364/1/4 365/1/4 366/1/4
f 365/3/4 363/3/4 367/3/4
f 366/1/4 365/1/4 367/1/4
f 361/3/4 366/3/4 368/3/4
f 366/3/4 367/3/4 368/3/4
f 367/3/4 363/3/4 369/3/4
f 368/3/4 367/3/4 369/3/4
f 370/3/4 371/3/4 372/3/4
f 372/3/4 371/3/4 373/3/4
f 373/1/4 374/1/4 376/1/4
f 374/3/4 375/3/4 377/3/4
f 376/1/4 374/1/4 377/1/4
f 376/3/4 377/3/4 378/3/4
f 377/3/4 375/3/4 379/3/4
f 378/3/4 377/3/4 379/3/4
f 380/3/4 381/3/4 383/3/4
f 381/3/4 382/3/4 383/3/4
f 383/3/4 382/3/4 384/3/4
f 380/3/4 383/3/4 385/3/4
f 383/1/4 384/1/4 386/1/4
f 385/3/4 383/3/4 386/3/4
f 384/3/4 382/3/4 387/3/4
f 386/1/4 384/1/4 387/1/4
f 387/3/4 382/3/4 388/3/4
f 388/3/4 382/3/4 389/3/4
f 390/3/4 391/3/4 392/3/4
f 392/3/4 391/3/4 393/3/4
f 392/1/4 393/1/4 394/1/4
f 393/3/4 391/3/4 395/3/4
f 394/1/4 393/1/4 395/1/4
f 394/3/4 395/3/4 396/3/4
f 395/3/4 391/3/4 397/3/4
f 396/3/4 395/3/4 397/3/4
f 401/2/5 399/2/5 398/2/5
f 402/2/5 399/2/5 401/2/5
f 404/2/5 401/2/5 400/2/5
f 404/2/5 403/2/5 402/2/5
f 404/2/5 402/2/5 401/2/5
f 405/2/5 403/2/5 404/2/5
f 406/2/5 403/2/5 405/2/5
f 407/2/5 403/2/5 406/2/5
f 408/2/5 406/2/5 405/2/5
f 409/2/5 406/2/5 408/2/5
f 412/3/5 411/3/5 410/3/5
f 413/3/5 411/3/5 412/3/5
f 414/3/5 412/3/5 410/3/5
f 415/3/5 411/3/5 413/3/5
f 416/3/5 414/3/5 410/3/5
f 416/3/5 415/3/5 414/3/5
f 417/3/5 411/3/5 415/3/5
f 417/3/5 415/3/5 416/3/5
f 420/3/5 419/3/5 418/3/5
f 422/3/5 420/3/5 418/3/5
f 422/3/5 421/3/5 420/3/5
f 423/3/5 421/3/5 422/3/5
f 426/1/5 425/1/5 424/1/5
f 427/1/5 425/1/5 426/1/5
f 428/3/5 427/3/5 426/3/5
f 429/3/5 427/3/5 428/3/5
f 435/3/5 431/3/5 430/3/5
f 436/3/5 431/3/5 435/3/5
f 437/3/5 431/3/5 436/3/5
f 438/3/5 434/3/5 433/3/5
f 438/3/5 433/3/5 432/3/5
f 439/3/5 437/3/5 436/3/5
f 440/3/5 434/3/5 438/3/5
f 441/3/5 439/3/5 436/3/5
f 443/3/5 434/3/5 440/3/5
f 444/3/5 434/3/5 443/3/5
f 445/3/5 442/3/5 441/3/5
f 445/3/5 441/3/5 436/3/5
f 446/3/5 442/3/5 445/3/5
f 447/3/5 442/3/5 446/3/5
f 448/3/5 442/3/5 447/3/5
f 449/3/5 442/3/5 448/3/5
f 450/3/5 442/3/5 449/3/5
f 451/3/5 447/3/5 446/3/5
f 452/1/5 448/1/5 447/1/5
f 452/3/5 447/3/5 451/3/5
f 453/3/5 449/3/5 448/3/5
f 453/1/5 448/1/5 452/1/5
f 454/3/5 449/3/5 453/3/5
f 457/3/5 456/3/5 455/3/5
f 458/3/5 456/3/5 457/3/5
f 461/3/5 460/3/5 459/3/5
f 462/3/5 460/3/5 461/3/5
f 463/3/5 460/3/5 462/3/5
f 464/3/5 460/3/5 463/3/5
f 467/3/5 466/3/5 465/3/5
f 468/3/5 466/3/5 467/3/5
f 471/3/5 470/3/5 469/3/5
f 472/3/5 470/3/5 471/3/5
f 473/3/5 470/3/5 472/3/5
f 474/2/6 475/2/6 477/2/6
f 477/2/6 475/2/6 478/2/6
f 476/2/6 477/2/6 480/2/6
f 480/2/6 477/2/6 481/2/6
f 478/2/6 479/2/6 482/2/6
f 482/2/6 479/2/6 483/2/6
f 481/2/6 482/2/6 484/2/6
f 484/2/6 482/2/6 485/2/6
f 486/3/6 487/3/6 488/3/6
f 488/3/6 487/3/6 489/3/6
f 490/3/6 491/3/6 492/3/6
f 490/3/6 492/3/6 493/3/6
f 493/3/6 492/3/6 494/3/6
f 495/3/6 496/3/6 497/3/6
f 494/3/6 495/3/6 497/3/6
f 494/3/6 497/3/6 498/3/6
f 498/3/6 497/3/6 499/3/6
f 500/3/6 501/3/6 502/3/6
f 502/3/6 501/3/6 503/3/6
f 503/3/6 501/3/6 504/3/6
f 504/3/6 501/3/6 505/3/6
f 508/3/6 509/3/6 510/3/6
f 510/3/6 509/3/6 511/3/6
f 506/3/6 507/3/6 512/3/6
f 512/3/6 507/3/6 513/3/6
f 513/3/6 507/3/6 514/3/6
f 508/3/6 510/3/6 516/3/6
f 514/3/6 515/3/6 518/3/6
f 513/3/6 514/3/6 518/3/6
f 518/3/6 515/3/6 519/3/6
f 516/3/6 517/3/6 520/3/6
f 508/3/6 516/3/6 520/3/6
f 520/3/6 517/3/6 521/3/6
f 519/3/6 515/3/6 523/3/6
f 522/3/6 523/3/6 524/3/6
f 523/3/6 515/3/6 525/3/6
f 524/3/6 523/3/6 525/3/6
f 526/3/6 527/3/6 528/3/6
f 528/3/6 527/3/6 529/3/6
f 530/3/6 531/3/6 533/3/6
f 533/3/6 531/3/6 534/3/6
f 532/3/6 533/3/6 536/3/6
f 535/3/6 536/3/6 537/3/6
f 536/3/6 533/3/6 538/3/6
f 537/3/6 536/3/6 538/3/6
f 538/3/6 533/3/6 539/3/6
f 539/3/6 533/3/6 540/3/6
f 541/3/6 542/3/6 543/3/6
f 543/3/6 542/3/6 544/3/6
f 544/3/6 542/3/6 545/3/6
f 545/3/6 542/3/6 546/3/6
f 546/3/6 542/3/6 547/3/6
f 548/3/6 549/3/6 550/3/6
f 548/3/6 550/3/6 551/3/6
f 551/3/6 550/3/6 552/3/6
f 553/3/6 554/3/6 557/3/6
f 554/1/6 555/1/6 557/1/6
f 555/3/6 556/3/6 558/3/6
f 557/1/6 555/1/6 558/1/6
f 558/3/6 556/3/6 559/3/6
f 557/3/6 558/3/6 562/3/6
f 558/3/6 559/3/6 562/3/6
f 559/3/6 560/3/6 562/3/6
f 562/3/6 560/3/6 563/3/6
f 560/1/6 561/1/6 564/1/6
f 563/3/6 560/3/6 564/3/6
f 564/1/6 561/1/6 565/1/6
f 557/3/6 562/3/6 566/3/6
f 553/3/6 557/3/6 567/3/6
f 557/3/6 566/3/6 567/3/6
f 567/3/6 566/3/6 568/3/6
f 564/3/6 565/3/6 570/3/6
f 563/3/6 564/3/6 570/3/6
f 569/3/6 570/3/6 571/3/6
f 568/3/6 569/3/6 571/3/6
f 570/3/6 565/3/6 572/3/6
f 571/3/6 570/3/6 572/3/6
f 573/3/6 574/3/6 575/3/6
f 575/3/6 574/3/6 576/3/6
f 575/1/6 576/1/6 577/1/6
f 576/3/6 574/3/6 578/3/6
f 577/1/6 576/1/6 578/1/6
f 578/3/6 574/3/6 579/3/6
