# MagicaVoxel @ Ephtracy

# group
o 

# material
mtllib tree1.mtl
usemtl palette

# normals
vn -1 0 0
vn 1 0 0
vn 0 0 1
vn 0 0 -1
vn 0 -1 0
vn 0 1 0

# texcoords
vt 0.177734 0.5
vt 0.583984 0.5

# verts
v 0 3.5 -0.8
v 0 3.5 -1.3
v 0 4 -0.8
v 0 4 -1.3
v 0.1 3.8 -0.7
v 0.1 3.8 -0.8
v 0.1 4 -0.8
v 0.1 4 -1.1
v 0.1 4.2 -0.7
v 0.1 4.2 -1.1
v 0.2 3.6 -0.4
v 0.2 3.6 -0.8
v 0.2 3.8 -0.7
v 0.2 3.8 -0.8
v 0.2 4 -0.4
v 0.2 4 -0.7
v 0.4 3.7 -1.3
v 0.4 3.7 -1.5
v 0.4 4 -1.1
v 0.4 4 -1.3
v 0.4 4.1 -1.1
v 0.4 4.1 -1.5
v 0.5 2 -0.8
v 0.5 2 -1
v 0.5 2.1 -0.8
v 0.5 2.1 -1
v 0.5 3.4 -0.7
v 0.5 3.4 -1.3
v 0.5 3.5 -0.8
v 0.5 3.5 -1.3
v 0.5 3.6 -0.7
v 0.5 3.6 -0.8
v 0.5 3.7 -0.1
v 0.5 3.7 -0.4
v 0.5 4 -0.4
v 0.5 4 -0.7
v 0.5 4.1 -0.1
v 0.5 4.1 -0.7
v 0.5 4.1 -1.1
v 0.5 4.1 -1.2
v 0.5 4.2 -0.7
v 0.5 4.2 -1.1
v 0.5 4.6 -0.7
v 0.5 4.6 -1.2
v 0.6 2 -0.7
v 0.6 2 -0.8
v 0.6 2 -1
v 0.6 2 -1.1
v 0.6 2.1 -0.7
v 0.6 2.1 -0.8
v 0.6 2.1 -1
v 0.6 2.1 -1.1
v 0.6 2.2 -0.8
v 0.6 2.2 -1
v 0.6 4.1 -0.4
v 0.6 4.1 -0.7
v 0.6 4.5 -0.4
v 0.6 4.5 -0.7
v 0.7 2 -0.6
v 0.7 2 -0.7
v 0.7 2 -1.1
v 0.7 2 -1.2
v 0.7 2.1 -0.6
v 0.7 2.1 -0.7
v 0.7 2.1 -0.8
v 0.7 2.1 -1
v 0.7 2.1 -1.1
v 0.7 2.1 -1.2
v 0.7 2.2 -0.7
v 0.7 2.2 -0.8
v 0.7 2.2 -1
v 0.7 2.2 -1.1
v 0.7 2.3 -0.8
v 0.7 2.3 -1
v 0.7 3.4 -0.5
v 0.7 3.4 -0.7
v 0.7 3.6 -0.5
v 0.7 3.6 -0.7
v 0.7 4.1 -1.2
v 0.7 4.1 -1.4
v 0.7 4.3 -1.2
v 0.7 4.3 -1.4
v 0.8 2 -0.5
v 0.8 2 -0.6
v 0.8 2 -1.2
v 0.8 2 -1.3
v 0.8 2.1 -0.5
v 0.8 2.1 -0.6
v 0.8 2.1 -0.7
v 0.8 2.1 -1.1
v 0.8 2.1 -1.2
v 0.8 2.1 -1.3
v 0.8 2.2 -0.6
v 0.8 2.2 -0.7
v 0.8 2.2 -0.8
v 0.8 2.2 -1
v 0.8 2.2 -1.1
v 0.8 2.2 -1.2
v 0.8 2.3 -0.7
v 0.8 2.3 -0.8
v 0.8 2.3 -1
v 0.8 2.3 -1.1
v 0.8 3.1 -0.6
v 0.8 3.1 -0.8
v 0.8 3.2 -0.5
v 0.8 3.2 -0.6
v 0.8 3.2 -0.8
v 0.8 3.4 -0.5
v 0.8 3.4 -0.6
v 0.8 3.4 -0.8
v 0.8 3.4 -1
v 0.8 3.8 0
v 0.8 3.8 -0.1
v 0.8 3.8 -1.5
v 0.8 3.8 -1.8
v 0.8 4.1 -0.1
v 0.8 4.1 -0.4
v 0.8 4.1 -1.4
v 0.8 4.1 -1.5
v 0.8 4.3 0
v 0.8 4.3 -0.4
v 0.8 4.3 -1.4
v 0.8 4.3 -1.8
v 0.6 3.6 -0.4
v 0.6 3.6 -0.5
v 0.6 3.7 -0.4
v 0.6 3.7 -0.5
v 0.8 3.7 -1.3
v 0.8 3.7 -1.5
v 0.8 3.8 -1.3
v 0.8 3.8 -1.5
v 0.9 3.7 -0.1
v 0.9 3.7 -0.5
v 0.9 3.8 -0.1
v 0.9 3.8 -0.5
v 1 2 -0.5
v 1 2 -0.6
v 1 2 -1.2
v 1 2 -1.3
v 1 2.1 -0.5
v 1 2.1 -0.6
v 1 2.1 -0.7
v 1 2.1 -1.1
v 1 2.1 -1.2
v 1 2.1 -1.3
v 1 2.2 -0.6
v 1 2.2 -0.7
v 1 2.2 -0.8
v 1 2.2 -1
v 1 2.2 -1.1
v 1 2.2 -1.2
v 1 2.3 -0.7
v 1 2.3 -0.8
v 1 2.3 -1
v 1 2.3 -1.1
v 1 3.1 -0.6
v 1 3.1 -0.8
v 1 3.2 -0.5
v 1 3.2 -0.6
v 1 3.2 -0.8
v 1 3.4 -0.5
v 1 3.4 -0.6
v 1 3.4 -0.8
v 1 3.4 -1
v 1 4.5 -0.7
v 1 4.5 -1.2
v 1 4.6 -0.7
v 1 4.6 -1.2
v 1.1 2 -0.6
v 1.1 2 -0.7
v 1.1 2 -1.1
v 1.1 2 -1.2
v 1.1 2.1 -0.6
v 1.1 2.1 -0.7
v 1.1 2.1 -0.8
v 1.1 2.1 -1
v 1.1 2.1 -1.1
v 1.1 2.1 -1.2
v 1.1 2.2 -0.7
v 1.1 2.2 -0.8
v 1.1 2.2 -1
v 1.1 2.2 -1.1
v 1.1 2.3 -0.8
v 1.1 2.3 -1
v 1.1 3.4 -0.5
v 1.1 3.4 -0.6
v 1.1 3.4 -1.1
v 1.1 3.4 -1.3
v 1.1 3.6 -0.5
v 1.1 3.6 -0.6
v 1.1 3.6 -1.1
v 1.1 3.6 -1.3
v 1.2 2 -0.7
v 1.2 2 -0.8
v 1.2 2 -1
v 1.2 2 -1.1
v 1.2 2.1 -0.7
v 1.2 2.1 -0.8
v 1.2 2.1 -1
v 1.2 2.1 -1.1
v 1.2 2.2 -0.8
v 1.2 2.2 -1
v 1.3 2 -0.8
v 1.3 2 -1
v 1.3 2.1 -0.8
v 1.3 2.1 -1
v 1.3 3.4 -0.6
v 1.3 3.4 -1.1
v 1.3 3.6 -0.5
v 1.3 3.6 -0.6
v 1.3 3.6 -1.1
v 1.3 3.6 -1.3
v 1.3 3.8 0
v 1.3 3.8 -0.5
v 1.3 3.8 -0.6
v 1.3 3.8 -1.1
v 1.3 3.8 -1.3
v 1.3 3.8 -1.8
v 1.3 4.3 0
v 1.3 4.3 -0.4
v 1.3 4.3 -0.6
v 1.3 4.3 -1.1
v 1.3 4.3 -1.2
v 1.3 4.3 -1.8
v 1.3 4.5 -0.4
v 1.3 4.5 -1.2
v 1.8 3.8 -0.6
v 1.8 3.8 -1.1
v 1.8 4.3 -0.6
v 1.8 4.3 -1.1
v 0.8 3.8 0
v 0.8 4.3 0
v 1.3 3.8 0
v 1.3 4.3 0
v 0.5 3.7 -0.1
v 0.5 4.1 -0.1
v 0.8 3.8 -0.1
v 0.8 4.1 -0.1
v 0.9 3.7 -0.1
v 0.9 3.8 -0.1
v 0.2 3.6 -0.4
v 0.2 4 -0.4
v 0.5 3.7 -0.4
v 0.5 4 -0.4
v 0.6 3.6 -0.4
v 0.6 3.7 -0.4
v 0.6 4.1 -0.4
v 0.6 4.5 -0.4
v 0.8 4.1 -0.4
v 0.8 4.3 -0.4
v 1.3 4.3 -0.4
v 1.3 4.5 -0.4
v 0.6 3.6 -0.5
v 0.6 3.7 -0.5
v 0.7 3.4 -0.5
v 0.7 3.6 -0.5
v 0.8 2 -0.5
v 0.8 2.1 -0.5
v 0.8 3.2 -0.5
v 0.8 3.4 -0.5
v 0.9 3.7 -0.5
v 0.9 3.8 -0.5
v 1 2 -0.5
v 1 2.1 -0.5
v 1 3.2 -0.5
v 1 3.4 -0.5
v 1.1 3.4 -0.5
v 1.1 3.6 -0.5
v 1.3 3.6 -0.5
v 1.3 3.8 -0.5
v 0.7 2 -0.6
v 0.7 2.1 -0.6
v 0.8 2 -0.6
v 0.8 2.1 -0.6
v 0.8 2.2 -0.6
v 0.8 3.1 -0.6
v 0.8 3.2 -0.6
v 1 2 -0.6
v 1 2.1 -0.6
v 1 2.2 -0.6
v 1 3.1 -0.6
v 1 3.2 -0.6
v 1.1 2 -0.6
v 1.1 2.1 -0.6
v 1.1 3.4 -0.6
v 1.1 3.6 -0.6
v 1.3 3.4 -0.6
v 1.3 3.6 -0.6
v 1.3 3.8 -0.6
v 1.3 4.3 -0.6
v 1.8 3.8 -0.6
v 1.8 4.3 -0.6
v 0.1 3.8 -0.7
v 0.1 4.2 -0.7
v 0.2 3.8 -0.7
v 0.2 4 -0.7
v 0.5 3.4 -0.7
v 0.5 3.6 -0.7
v 0.5 4 -0.7
v 0.5 4.1 -0.7
v 0.5 4.2 -0.7
v 0.5 4.6 -0.7
v 0.6 2 -0.7
v 0.6 2.1 -0.7
v 0.6 4.1 -0.7
v 0.6 4.5 -0.7
v 0.7 2 -0.7
v 0.7 2.1 -0.7
v 0.7 2.2 -0.7
v 0.7 3.4 -0.7
v 0.7 3.6 -0.7
v 0.8 2.1 -0.7
v 0.8 2.2 -0.7
v 0.8 2.3 -0.7
v 1 2.1 -0.7
v 1 2.2 -0.7
v 1 2.3 -0.7
v 1 4.5 -0.7
v 1 4.6 -0.7
v 1.1 2 -0.7
v 1.1 2.1 -0.7
v 1.1 2.2 -0.7
v 1.2 2 -0.7
v 1.2 2.1 -0.7
v 0 3.5 -0.8
v 0 4 -0.8
v 0.1 3.8 -0.8
v 0.1 4 -0.8
v 0.2 3.6 -0.8
v 0.2 3.8 -0.8
v 0.5 2 -0.8
v 0.5 2.1 -0.8
v 0.5 3.5 -0.8
v 0.5 3.6 -0.8
v 0.6 2 -0.8
v 0.6 2.1 -0.8
v 0.6 2.2 -0.8
v 0.7 2.1 -0.8
v 0.7 2.2 -0.8
v 0.7 2.3 -0.8
v 0.8 2.2 -0.8
v 0.8 2.3 -0.8
v 0.8 3.1 -0.8
v 0.8 3.2 -0.8
v 0.8 3.4 -0.8
v 1 2.2 -0.8
v 1 2.3 -0.8
v 1 3.1 -0.8
v 1 3.2 -0.8
v 1 3.4 -0.8
v 1.1 2.1 -0.8
v 1.1 2.2 -0.8
v 1.1 2.3 -0.8
v 1.2 2 -0.8
v 1.2 2.1 -0.8
v 1.2 2.2 -0.8
v 1.3 2 -0.8
v 1.3 2.1 -0.8
v 0.8 3.2 -0.6
v 0.8 3.4 -0.6
v 1 3.2 -0.6
v 1 3.4 -0.6
v 0.5 2 -1
v 0.5 2.1 -1
v 0.6 2 -1
v 0.6 2.1 -1
v 0.6 2.2 -1
v 0.7 2.1 -1
v 0.7 2.2 -1
v 0.7 2.3 -1
v 0.8 2.2 -1
v 0.8 2.3 -1
v 0.8 3.4 -1
v 1 2.2 -1
v 1 2.3 -1
v 1 3.4 -1
v 1.1 2.1 -1
v 1.1 2.2 -1
v 1.1 2.3 -1
v 1.2 2 -1
v 1.2 2.1 -1
v 1.2 2.2 -1
v 1.3 2 -1
v 1.3 2.1 -1
v 0.1 4 -1.1
v 0.1 4.2 -1.1
v 0.4 4 -1.1
v 0.4 4.1 -1.1
v 0.5 4.1 -1.1
v 0.5 4.2 -1.1
v 0.6 2 -1.1
v 0.6 2.1 -1.1
v 0.7 2 -1.1
v 0.7 2.1 -1.1
v 0.7 2.2 -1.1
v 0.8 2.1 -1.1
v 0.8 2.2 -1.1
v 0.8 2.3 -1.1
v 1 2.1 -1.1
v 1 2.2 -1.1
v 1 2.3 -1.1
v 1.1 2 -1.1
v 1.1 2.1 -1.1
v 1.1 2.2 -1.1
v 1.1 3.4 -1.1
v 1.1 3.6 -1.1
v 1.2 2 -1.1
v 1.2 2.1 -1.1
v 1.3 3.4 -1.1
v 1.3 3.6 -1.1
v 1.3 3.8 -1.1
v 1.3 4.3 -1.1
v 1.8 3.8 -1.1
v 1.8 4.3 -1.1
v 0.5 4.1 -1.2
v 0.5 4.6 -1.2
v 0.7 2 -1.2
v 0.7 2.1 -1.2
v 0.7 4.1 -1.2
v 0.7 4.3 -1.2
v 0.8 2 -1.2
v 0.8 2.1 -1.2
v 0.8 2.2 -1.2
v 1 2 -1.2
v 1 2.1 -1.2
v 1 2.2 -1.2
v 1 4.5 -1.2
v 1 4.6 -1.2
v 1.1 2 -1.2
v 1.1 2.1 -1.2
v 1.3 4.3 -1.2
v 1.3 4.5 -1.2
v 0 3.5 -1.3
v 0 4 -1.3
v 0.4 3.7 -1.3
v 0.4 4 -1.3
v 0.5 3.4 -1.3
v 0.5 3.5 -1.3
v 0.8 2 -1.3
v 0.8 2.1 -1.3
v 0.8 3.7 -1.3
v 0.8 3.8 -1.3
v 1 2 -1.3
v 1 2.1 -1.3
v 1.1 3.4 -1.3
v 1.1 3.6 -1.3
v 1.3 3.6 -1.3
v 1.3 3.8 -1.3
v 0.7 4.1 -1.4
v 0.7 4.3 -1.4
v 0.8 4.1 -1.4
v 0.8 4.3 -1.4
v 0.4 3.7 -1.5
v 0.4 4.1 -1.5
v 0.8 3.7 -1.5
v 0.8 3.8 -1.5
v 0.8 4.1 -1.5
v 0.8 3.8 -1.8
v 0.8 4.3 -1.8
v 1.3 3.8 -1.8
v 1.3 4.3 -1.8
v 0.8 2 -0.5
v 1 2 -0.5
v 0.7 2 -0.6
v 0.8 2 -0.6
v 1 2 -0.6
v 1.1 2 -0.6
v 0.6 2 -0.7
v 0.7 2 -0.7
v 1.1 2 -0.7
v 1.2 2 -0.7
v 0.5 2 -0.8
v 0.6 2 -0.8
v 1.2 2 -0.8
v 1.3 2 -0.8
v 0.5 2 -1
v 0.6 2 -1
v 1.2 2 -1
v 1.3 2 -1
v 0.6 2 -1.1
v 0.7 2 -1.1
v 1.1 2 -1.1
v 1.2 2 -1.1
v 0.7 2 -1.2
v 0.8 2 -1.2
v 1 2 -1.2
v 1.1 2 -1.2
v 0.8 2 -1.3
v 1 2 -1.3
v 0.8 3.1 -0.6
v 1 3.1 -0.6
v 0.8 3.1 -0.8
v 1 3.1 -0.8
v 0.8 3.2 -0.5
v 1 3.2 -0.5
v 0.8 3.2 -0.6
v 1 3.2 -0.6
v 0.7 3.4 -0.5
v 0.8 3.4 -0.5
v 1 3.4 -0.5
v 1.1 3.4 -0.5
v 0.8 3.4 -0.6
v 1 3.4 -0.6
v 1.1 3.4 -0.6
v 1.3 3.4 -0.6
v 0.5 3.4 -0.7
v 0.7 3.4 -0.7
v 0.8 3.4 -0.8
v 1 3.4 -0.8
v 0.8 3.4 -1
v 1 3.4 -1
v 1.1 3.4 -1.1
v 1.3 3.4 -1.1
v 0.5 3.4 -1.3
v 1.1 3.4 -1.3
v 0 3.5 -0.8
v 0.5 3.5 -0.8
v 0 3.5 -1.3
v 0.5 3.5 -1.3
v 0.2 3.6 -0.4
v 0.6 3.6 -0.4
v 0.6 3.6 -0.5
v 0.7 3.6 -0.5
v 1.1 3.6 -0.5
v 1.3 3.6 -0.5
v 1.1 3.6 -0.6
v 1.3 3.6 -0.6
v 0.5 3.6 -0.7
v 0.7 3.6 -0.7
v 0.2 3.6 -0.8
v 0.5 3.6 -0.8
v 1.1 3.6 -1.1
v 1.3 3.6 -1.1
v 1.1 3.6 -1.3
v 1.3 3.6 -1.3
v 0.5 3.7 -0.1
v 0.9 3.7 -0.1
v 0.5 3.7 -0.4
v 0.6 3.7 -0.4
v 0.6 3.7 -0.5
v 0.9 3.7 -0.5
v 0.4 3.7 -1.3
v 0.8 3.7 -1.3
v 0.4 3.7 -1.5
v 0.8 3.7 -1.5
v 0.8 3.8 0
v 1.3 3.8 0
v 0.8 3.8 -0.1
v 0.9 3.8 -0.1
v 0.9 3.8 -0.5
v 1.3 3.8 -0.5
v 1.3 3.8 -0.6
v 1.8 3.8 -0.6
v 0.1 3.8 -0.7
v 0.2 3.8 -0.7
v 0.1 3.8 -0.8
v 0.2 3.8 -0.8
v 1.3 3.8 -1.1
v 1.8 3.8 -1.1
v 0.8 3.8 -1.3
v 1.3 3.8 -1.3
v 0.8 3.8 -1.5
v 0.8 3.8 -1.8
v 1.3 3.8 -1.8
v 0.8 2.1 -0.5
v 1 2.1 -0.5
v 0.7 2.1 -0.6
v 0.8 2.1 -0.6
v 1 2.1 -0.6
v 1.1 2.1 -0.6
v 0.6 2.1 -0.7
v 0.7 2.1 -0.7
v 0.8 2.1 -0.7
v 1 2.1 -0.7
v 1.1 2.1 -0.7
v 1.2 2.1 -0.7
v 0.5 2.1 -0.8
v 0.6 2.1 -0.8
v 0.7 2.1 -0.8
v 1.1 2.1 -0.8
v 1.2 2.1 -0.8
v 1.3 2.1 -0.8
v 0.5 2.1 -1
v 0.6 2.1 -1
v 0.7 2.1 -1
v 1.1 2.1 -1
v 1.2 2.1 -1
v 1.3 2.1 -1
v 0.6 2.1 -1.1
v 0.7 2.1 -1.1
v 0.8 2.1 -1.1
v 1 2.1 -1.1
v 1.1 2.1 -1.1
v 1.2 2.1 -1.1
v 0.7 2.1 -1.2
v 0.8 2.1 -1.2
v 1 2.1 -1.2
v 1.1 2.1 -1.2
v 0.8 2.1 -1.3
v 1 2.1 -1.3
v 0.8 2.2 -0.6
v 1 2.2 -0.6
v 0.7 2.2 -0.7
v 0.8 2.2 -0.7
v 1 2.2 -0.7
v 1.1 2.2 -0.7
v 0.6 2.2 -0.8
v 0.7 2.2 -0.8
v 0.8 2.2 -0.8
v 1 2.2 -0.8
v 1.1 2.2 -0.8
v 1.2 2.2 -0.8
v 0.6 2.2 -1
v 0.7 2.2 -1
v 0.8 2.2 -1
v 1 2.2 -1
v 1.1 2.2 -1
v 1.2 2.2 -1
v 0.7 2.2 -1.1
v 0.8 2.2 -1.1
v 1 2.2 -1.1
v 1.1 2.2 -1.1
v 0.8 2.2 -1.2
v 1 2.2 -1.2
v 0.8 2.3 -0.7
v 1 2.3 -0.7
v 0.7 2.3 -0.8
v 0.8 2.3 -0.8
v 1 2.3 -0.8
v 1.1 2.3 -0.8
v 0.7 2.3 -1
v 0.8 2.3 -1
v 1 2.3 -1
v 1.1 2.3 -1
v 0.8 2.3 -1.1
v 1 2.3 -1.1
v 0.8 3.2 -0.6
v 1 3.2 -0.6
v 0.8 3.2 -0.8
v 1 3.2 -0.8
v 0.2 4 -0.4
v 0.5 4 -0.4
v 0.2 4 -0.7
v 0.5 4 -0.7
v 0 4 -0.8
v 0.1 4 -0.8
v 0.1 4 -1.1
v 0.4 4 -1.1
v 0 4 -1.3
v 0.4 4 -1.3
v 0.5 4.1 -0.1
v 0.8 4.1 -0.1
v 0.6 4.1 -0.4
v 0.8 4.1 -0.4
v 0.5 4.1 -0.7
v 0.6 4.1 -0.7
v 0.4 4.1 -1.1
v 0.5 4.1 -1.1
v 0.5 4.1 -1.2
v 0.7 4.1 -1.2
v 0.7 4.1 -1.4
v 0.8 4.1 -1.4
v 0.4 4.1 -1.5
v 0.8 4.1 -1.5
v 0.1 4.2 -0.7
v 0.5 4.2 -0.7
v 0.1 4.2 -1.1
v 0.5 4.2 -1.1
v 0.8 4.3 0
v 1.3 4.3 0
v 0.8 4.3 -0.4
v 1.3 4.3 -0.4
v 1.3 4.3 -0.6
v 1.8 4.3 -0.6
v 1.3 4.3 -1.1
v 1.8 4.3 -1.1
v 0.7 4.3 -1.2
v 1.3 4.3 -1.2
v 0.7 4.3 -1.4
v 0.8 4.3 -1.4
v 0.8 4.3 -1.8
v 1.3 4.3 -1.8
v 0.6 4.5 -0.4
v 1.3 4.5 -0.4
v 0.6 4.5 -0.7
v 1 4.5 -0.7
v 1 4.5 -1.2
v 1.3 4.5 -1.2
v 0.5 4.6 -0.7
v 1 4.6 -0.7
v 0.5 4.6 -1.2
v 1 4.6 -1.2

# faces
f 3/2/1 2/2/1 1/2/1
f 4/2/1 2/2/1 3/2/1
f 7/2/1 6/2/1 5/2/1
f 9/2/1 7/2/1 5/2/1
f 9/2/1 8/2/1 7/2/1
f 10/2/1 8/2/1 9/2/1
f 13/2/1 12/2/1 11/2/1
f 14/2/1 12/2/1 13/2/1
f 15/2/1 13/2/1 11/2/1
f 16/2/1 13/2/1 15/2/1
f 20/2/1 18/2/1 17/2/1
f 21/2/1 20/2/1 19/2/1
f 22/2/1 18/2/1 20/2/1
f 22/2/1 20/2/1 21/2/1
f 25/1/1 24/1/1 23/1/1
f 26/1/1 24/1/1 25/1/1
f 29/2/1 28/2/1 27/2/1
f 30/2/1 28/2/1 29/2/1
f 31/2/1 29/2/1 27/2/1
f 32/2/1 29/2/1 31/2/1
f 35/2/1 34/2/1 33/2/1
f 37/2/1 35/2/1 33/2/1
f 37/2/1 36/2/1 35/2/1
f 38/2/1 36/2/1 37/2/1
f 42/2/1 40/2/1 39/2/1
f 43/2/1 42/2/1 41/2/1
f 44/2/1 40/2/1 42/2/1
f 44/2/1 42/2/1 43/2/1
f 49/1/1 46/1/1 45/1/1
f 50/1/1 46/1/1 49/1/1
f 51/1/1 48/1/1 47/1/1
f 52/1/1 48/1/1 51/1/1
f 53/1/1 51/1/1 50/1/1
f 54/1/1 51/1/1 53/1/1
f 57/2/1 56/2/1 55/2/1
f 58/2/1 56/2/1 57/2/1
f 63/1/1 60/1/1 59/1/1
f 64/1/1 60/1/1 63/1/1
f 67/1/1 62/1/1 61/1/1
f 68/1/1 62/1/1 67/1/1
f 69/1/1 65/1/1 64/1/1
f 70/1/1 65/1/1 69/1/1
f 71/1/1 67/1/1 66/1/1
f 72/1/1 67/1/1 71/1/1
f 73/1/1 71/1/1 70/1/1
f 74/1/1 71/1/1 73/1/1
f 77/2/1 76/2/1 75/2/1
f 78/2/1 76/2/1 77/2/1
f 81/2/1 80/2/1 79/2/1
f 82/2/1 80/2/1 81/2/1
f 87/1/1 84/1/1 83/1/1
f 88/1/1 84/1/1 87/1/1
f 91/1/1 86/1/1 85/1/1
f 92/1/1 86/1/1 91/1/1
f 93/1/1 89/1/1 88/1/1
f 94/1/1 89/1/1 93/1/1
f 97/1/1 91/1/1 90/1/1
f 98/1/1 91/1/1 97/1/1
f 99/1/1 95/1/1 94/1/1
f 100/1/1 95/1/1 99/1/1
f 101/1/1 97/1/1 96/1/1
f 102/1/1 97/1/1 101/1/1
f 104/1/1 101/1/1 100/1/1
f 106/1/1 104/1/1 103/1/1
f 107/1/1 101/1/1 104/1/1
f 107/1/1 104/1/1 106/1/1
f 108/1/1 106/1/1 105/1/1
f 109/1/1 106/1/1 108/1/1
f 110/1/1 101/1/1 107/1/1
f 111/1/1 101/1/1 110/1/1
f 116/2/1 113/2/1 112/2/1
f 119/2/1 115/2/1 114/2/1
f 120/2/1 117/2/1 116/2/1
f 120/2/1 116/2/1 112/2/1
f 121/2/1 117/2/1 120/2/1
f 122/2/1 119/2/1 118/2/1
f 123/2/1 115/2/1 119/2/1
f 123/2/1 119/2/1 122/2/1
f 124/2/2 125/2/2 126/2/2
f 126/2/2 125/2/2 127/2/2
f 128/2/2 129/2/2 130/2/2
f 130/2/2 129/2/2 131/2/2
f 132/2/2 133/2/2 134/2/2
f 134/2/2 133/2/2 135/2/2
f 136/1/2 137/1/2 140/1/2
f 140/1/2 137/1/2 141/1/2
f 138/1/2 139/1/2 144/1/2
f 144/1/2 139/1/2 145/1/2
f 141/1/2 142/1/2 146/1/2
f 146/1/2 142/1/2 147/1/2
f 143/1/2 144/1/2 150/1/2
f 150/1/2 144/1/2 151/1/2
f 147/1/2 148/1/2 152/1/2
f 152/1/2 148/1/2 153/1/2
f 149/1/2 150/1/2 154/1/2
f 154/1/2 150/1/2 155/1/2
f 153/1/2 154/1/2 157/1/2
f 156/1/2 157/1/2 159/1/2
f 157/1/2 154/1/2 160/1/2
f 159/1/2 157/1/2 160/1/2
f 158/1/2 159/1/2 161/1/2
f 161/1/2 159/1/2 162/1/2
f 160/1/2 154/1/2 163/1/2
f 163/1/2 154/1/2 164/1/2
f 165/2/2 166/2/2 167/2/2
f 167/2/2 166/2/2 168/2/2
f 169/1/2 170/1/2 173/1/2
f 173/1/2 170/1/2 174/1/2
f 171/1/2 172/1/2 177/1/2
f 177/1/2 172/1/2 178/1/2
f 174/1/2 175/1/2 179/1/2
f 179/1/2 175/1/2 180/1/2
f 176/1/2 177/1/2 181/1/2
f 181/1/2 177/1/2 182/1/2
f 180/1/2 181/1/2 183/1/2
f 183/1/2 181/1/2 184/1/2
f 185/2/2 186/2/2 189/2/2
f 189/2/2 186/2/2 190/2/2
f 187/2/2 188/2/2 191/2/2
f 191/2/2 188/2/2 192/2/2
f 193/1/2 194/1/2 197/1/2
f 197/1/2 194/1/2 198/1/2
f 195/1/2 196/1/2 199/1/2
f 199/1/2 196/1/2 200/1/2
f 198/1/2 199/1/2 201/1/2
f 201/1/2 199/1/2 202/1/2
f 203/1/2 204/1/2 205/1/2
f 205/1/2 204/1/2 206/1/2
f 207/2/2 208/2/2 210/2/2
f 210/2/2 208/2/2 211/2/2
f 209/2/2 210/2/2 214/2/2
f 211/2/2 212/2/2 214/2/2
f 210/2/2 211/2/2 214/2/2
f 214/2/2 212/2/2 215/2/2
f 215/2/2 212/2/2 216/2/2
f 216/2/2 212/2/2 217/2/2
f 213/2/2 214/2/2 219/2/2
f 214/2/2 215/2/2 219/2/2
f 219/2/2 215/2/2 220/2/2
f 220/2/2 215/2/2 221/2/2
f 217/2/2 218/2/2 222/2/2
f 216/2/2 217/2/2 222/2/2
f 222/2/2 218/2/2 223/2/2
f 223/2/2 218/2/2 224/2/2
f 220/2/2 221/2/2 225/2/2
f 222/2/2 223/2/2 225/2/2
f 221/2/2 222/2/2 225/2/2
f 225/2/2 223/2/2 226/2/2
f 227/2/2 228/2/2 229/2/2
f 229/2/2 228/2/2 230/2/2
f 233/2/3 232/2/3 231/2/3
f 234/2/3 232/2/3 233/2/3
f 237/2/3 236/2/3 235/2/3
f 238/2/3 236/2/3 237/2/3
f 239/2/3 237/2/3 235/2/3
f 240/2/3 237/2/3 239/2/3
f 243/2/3 242/2/3 241/2/3
f 244/2/3 242/2/3 243/2/3
f 245/2/3 243/2/3 241/2/3
f 246/2/3 243/2/3 245/2/3
f 249/2/3 248/2/3 247/2/3
f 250/2/3 248/2/3 249/2/3
f 251/2/3 248/2/3 250/2/3
f 252/2/3 248/2/3 251/2/3
f 256/2/3 254/2/3 253/2/3
f 260/2/3 256/2/3 255/2/3
f 261/2/3 254/2/3 256/2/3
f 261/2/3 256/2/3 260/2/3
f 263/1/3 258/1/3 257/1/3
f 264/1/3 258/1/3 263/1/3
f 265/1/3 260/1/3 259/1/3
f 266/2/3 262/2/3 261/2/3
f 266/1/3 260/1/3 265/1/3
f 266/2/3 261/2/3 260/2/3
f 267/2/3 262/2/3 266/2/3
f 268/2/3 262/2/3 267/2/3
f 269/2/3 262/2/3 268/2/3
f 270/2/3 262/2/3 269/2/3
f 273/1/3 272/1/3 271/1/3
f 274/1/3 272/1/3 273/1/3
f 279/1/3 275/1/3 274/1/3
f 280/1/3 275/1/3 279/1/3
f 281/1/3 277/1/3 276/1/3
f 282/1/3 277/1/3 281/1/3
f 283/1/3 279/1/3 278/1/3
f 284/1/3 279/1/3 283/1/3
f 287/2/3 286/2/3 285/2/3
f 288/2/3 286/2/3 287/2/3
f 291/2/3 290/2/3 289/2/3
f 292/2/3 290/2/3 291/2/3
f 295/2/3 294/2/3 293/2/3
f 296/2/3 294/2/3 295/2/3
f 299/2/3 294/2/3 296/2/3
f 300/2/3 294/2/3 299/2/3
f 301/2/3 294/2/3 300/2/3
f 305/2/3 302/2/3 301/2/3
f 305/2/3 301/2/3 300/2/3
f 306/2/3 302/2/3 305/2/3
f 307/1/3 304/1/3 303/1/3
f 308/1/3 304/1/3 307/1/3
f 310/2/3 298/2/3 297/2/3
f 311/2/3 298/2/3 310/2/3
f 312/1/3 309/1/3 308/1/3
f 313/1/3 309/1/3 312/1/3
f 316/1/3 314/1/3 313/1/3
f 317/1/3 314/1/3 316/1/3
f 318/2/3 302/2/3 306/2/3
f 319/2/3 302/2/3 318/2/3
f 321/1/3 316/1/3 315/1/3
f 322/1/3 316/1/3 321/1/3
f 323/1/3 321/1/3 320/1/3
f 324/1/3 321/1/3 323/1/3
f 327/2/3 326/2/3 325/2/3
f 328/2/3 326/2/3 327/2/3
f 329/2/3 327/2/3 325/2/3
f 330/2/3 327/2/3 329/2/3
f 333/2/3 329/2/3 325/2/3
f 334/2/3 329/2/3 333/2/3
f 335/1/3 332/1/3 331/1/3
f 336/1/3 332/1/3 335/1/3
f 338/1/3 337/1/3 336/1/3
f 339/1/3 337/1/3 338/1/3
f 341/1/3 340/1/3 339/1/3
f 342/1/3 340/1/3 341/1/3
f 347/1/3 343/1/3 342/1/3
f 348/1/3 343/1/3 347/1/3
f 349/1/3 345/1/3 344/1/3
f 350/1/3 345/1/3 349/1/3
f 352/1/3 347/1/3 346/1/3
f 353/1/3 347/1/3 352/1/3
f 355/1/3 352/1/3 351/1/3
f 356/1/3 352/1/3 355/1/3
f 357/1/3 355/1/3 354/1/3
f 358/1/3 355/1/3 357/1/3
f 359/1/4 360/1/4 361/1/4
f 361/1/4 360/1/4 362/1/4
f 363/1/4 364/1/4 365/1/4
f 365/1/4 364/1/4 366/1/4
f 366/1/4 367/1/4 368/1/4
f 368/1/4 367/1/4 369/1/4
f 369/1/4 370/1/4 371/1/4
f 371/1/4 370/1/4 372/1/4
f 372/1/4 373/1/4 375/1/4
f 375/1/4 373/1/4 376/1/4
f 374/1/4 375/1/4 378/1/4
f 378/1/4 375/1/4 379/1/4
f 377/1/4 378/1/4 381/1/4
f 381/1/4 378/1/4 382/1/4
f 380/1/4 381/1/4 383/1/4
f 383/1/4 381/1/4 384/1/4
f 385/2/4 386/2/4 387/2/4
f 387/2/4 386/2/4 388/2/4
f 388/2/4 386/2/4 389/2/4
f 389/2/4 386/2/4 390/2/4
f 391/1/4 392/1/4 393/1/4
f 393/1/4 392/1/4 394/1/4
f 394/1/4 395/1/4 396/1/4
f 396/1/4 395/1/4 397/1/4
f 397/1/4 398/1/4 400/1/4
f 400/1/4 398/1/4 401/1/4
f 399/1/4 400/1/4 403/1/4
f 403/1/4 400/1/4 404/1/4
f 402/1/4 403/1/4 407/1/4
f 407/1/4 403/1/4 408/1/4
f 405/2/4 406/2/4 409/2/4
f 409/2/4 406/2/4 410/2/4
f 411/2/4 412/2/4 413/2/4
f 413/2/4 412/2/4 414/2/4
f 415/2/4 416/2/4 419/2/4
f 419/2/4 416/2/4 420/2/4
f 417/1/4 418/1/4 421/1/4
f 421/1/4 418/1/4 422/1/4
f 422/1/4 423/1/4 425/1/4
f 425/1/4 423/1/4 426/1/4
f 420/2/4 416/2/4 427/2/4
f 427/2/4 416/2/4 428/2/4
f 424/1/4 425/1/4 429/1/4
f 429/1/4 425/1/4 430/1/4
f 420/2/4 427/2/4 431/2/4
f 431/2/4 427/2/4 432/2/4
f 433/2/4 434/2/4 435/2/4
f 435/2/4 434/2/4 436/2/4
f 433/2/4 435/2/4 438/2/4
f 438/2/4 435/2/4 441/2/4
f 437/2/4 438/2/4 441/2/4
f 439/1/4 440/1/4 443/1/4
f 443/1/4 440/1/4 444/1/4
f 441/2/4 442/2/4 445/2/4
f 437/2/4 441/2/4 445/2/4
f 445/2/4 442/2/4 446/2/4
f 446/2/4 442/2/4 447/2/4
f 447/2/4 442/2/4 448/2/4
f 449/2/4 450/2/4 451/2/4
f 451/2/4 450/2/4 452/2/4
f 453/2/4 454/2/4 455/2/4
f 455/2/4 454/2/4 456/2/4
f 456/2/4 454/2/4 457/2/4
f 458/2/4 459/2/4 460/2/4
f 460/2/4 459/2/4 461/2/4
f 465/1/5 463/1/5 462/1/5
f 466/1/5 463/1/5 465/1/5
f 469/1/5 465/1/5 464/1/5
f 469/1/5 467/1/5 466/1/5
f 469/1/5 466/1/5 465/1/5
f 470/1/5 467/1/5 469/1/5
f 473/1/5 469/1/5 468/1/5
f 473/1/5 471/1/5 470/1/5
f 473/1/5 470/1/5 469/1/5
f 474/1/5 471/1/5 473/1/5
f 476/1/5 473/1/5 472/1/5
f 476/1/5 475/1/5 474/1/5
f 476/1/5 474/1/5 473/1/5
f 477/1/5 475/1/5 476/1/5
f 478/1/5 475/1/5 477/1/5
f 479/1/5 475/1/5 478/1/5
f 480/1/5 478/1/5 477/1/5
f 481/1/5 478/1/5 480/1/5
f 482/1/5 478/1/5 481/1/5
f 483/1/5 478/1/5 482/1/5
f 484/1/5 482/1/5 481/1/5
f 485/1/5 482/1/5 484/1/5
f 486/1/5 482/1/5 485/1/5
f 487/1/5 482/1/5 486/1/5
f 488/1/5 486/1/5 485/1/5
f 489/1/5 486/1/5 488/1/5
f 492/1/5 491/1/5 490/1/5
f 493/1/5 491/1/5 492/1/5
f 496/1/5 495/1/5 494/1/5
f 497/1/5 495/1/5 496/1/5
f 502/2/5 499/2/5 498/2/5
f 503/2/5 501/2/5 500/2/5
f 504/2/5 501/2/5 503/2/5
f 507/2/5 502/2/5 498/2/5
f 507/2/5 505/2/5 504/2/5
f 507/2/5 504/2/5 503/2/5
f 507/2/5 503/2/5 502/2/5
f 508/2/5 505/2/5 507/2/5
f 508/2/5 507/2/5 506/2/5
f 509/2/5 505/2/5 508/2/5
f 510/2/5 508/2/5 506/2/5
f 511/2/5 505/2/5 509/2/5
f 512/2/5 505/2/5 511/2/5
f 512/2/5 511/2/5 510/2/5
f 513/2/5 505/2/5 512/2/5
f 514/2/5 510/2/5 506/2/5
f 514/2/5 512/2/5 510/2/5
f 515/2/5 512/2/5 514/2/5
f 518/2/5 517/2/5 516/2/5
f 519/2/5 517/2/5 518/2/5
f 522/2/5 521/2/5 520/2/5
f 526/2/5 525/2/5 524/2/5
f 527/2/5 525/2/5 526/2/5
f 528/2/5 522/2/5 520/2/5
f 528/2/5 523/2/5 522/2/5
f 529/2/5 523/2/5 528/2/5
f 530/2/5 528/2/5 520/2/5
f 531/2/5 528/2/5 530/2/5
f 534/2/5 533/2/5 532/2/5
f 535/2/5 533/2/5 534/2/5
f 538/2/5 537/2/5 536/2/5
f 539/2/5 537/2/5 538/2/5
f 540/2/5 537/2/5 539/2/5
f 541/2/5 537/2/5 540/2/5
f 544/2/5 543/2/5 542/2/5
f 545/2/5 543/2/5 544/2/5
f 548/2/5 547/2/5 546/2/5
f 549/2/5 547/2/5 548/2/5
f 550/2/5 547/2/5 549/2/5
f 551/2/5 547/2/5 550/2/5
f 556/2/5 555/2/5 554/2/5
f 557/2/5 555/2/5 556/2/5
f 558/2/5 553/2/5 552/2/5
f 559/2/5 553/2/5 558/2/5
f 562/2/5 561/2/5 560/2/5
f 563/2/5 561/2/5 562/2/5
f 564/2/5 561/2/5 563/2/5
f 565/1/6 566/1/6 568/1/6
f 568/1/6 566/1/6 569/1/6
f 567/1/6 568/1/6 572/1/6
f 572/1/6 568/1/6 573/1/6
f 569/1/6 570/1/6 574/1/6
f 574/1/6 570/1/6 575/1/6
f 571/1/6 572/1/6 578/1/6
f 578/1/6 572/1/6 579/1/6
f 575/1/6 576/1/6 580/1/6
f 580/1/6 576/1/6 581/1/6
f 577/1/6 578/1/6 583/1/6
f 583/1/6 578/1/6 584/1/6
f 581/1/6 582/1/6 587/1/6
f 587/1/6 582/1/6 588/1/6
f 584/1/6 585/1/6 589/1/6
f 589/1/6 585/1/6 590/1/6
f 586/1/6 587/1/6 593/1/6
f 593/1/6 587/1/6 594/1/6
f 590/1/6 591/1/6 595/1/6
f 595/1/6 591/1/6 596/1/6
f 592/1/6 593/1/6 597/1/6
f 597/1/6 593/1/6 598/1/6
f 596/1/6 597/1/6 599/1/6
f 599/1/6 597/1/6 600/1/6
f 601/1/6 602/1/6 604/1/6
f 604/1/6 602/1/6 605/1/6
f 603/1/6 604/1/6 608/1/6
f 608/1/6 604/1/6 609/1/6
f 605/1/6 606/1/6 610/1/6
f 610/1/6 606/1/6 611/1/6
f 607/1/6 608/1/6 613/1/6
f 613/1/6 608/1/6 614/1/6
f 611/1/6 612/1/6 617/1/6
f 617/1/6 612/1/6 618/1/6
f 614/1/6 615/1/6 619/1/6
f 619/1/6 615/1/6 620/1/6
f 616/1/6 617/1/6 621/1/6
f 621/1/6 617/1/6 622/1/6
f 620/1/6 621/1/6 623/1/6
f 623/1/6 621/1/6 624/1/6
f 625/1/6 626/1/6 628/1/6
f 628/1/6 626/1/6 629/1/6
f 627/1/6 628/1/6 631/1/6
f 631/1/6 628/1/6 632/1/6
f 629/1/6 630/1/6 633/1/6
f 633/1/6 630/1/6 634/1/6
f 632/1/6 633/1/6 635/1/6
f 635/1/6 633/1/6 636/1/6
f 637/1/6 638/1/6 639/1/6
f 639/1/6 638/1/6 640/1/6
f 641/2/6 642/2/6 643/2/6
f 643/2/6 642/2/6 644/2/6
f 645/2/6 646/2/6 647/2/6
f 645/2/6 647/2/6 649/2/6
f 647/2/6 648/2/6 649/2/6
f 649/2/6 648/2/6 650/2/6
f 651/2/6 652/2/6 653/2/6
f 653/2/6 652/2/6 654/2/6
f 651/2/6 653/2/6 655/2/6
f 655/2/6 653/2/6 656/2/6
f 657/2/6 658/2/6 659/2/6
f 659/2/6 660/2/6 661/2/6
f 657/2/6 659/2/6 663/2/6
f 661/2/6 662/2/6 663/2/6
f 659/2/6 661/2/6 663/2/6
f 663/2/6 662/2/6 664/2/6
f 665/2/6 666/2/6 667/2/6
f 667/2/6 666/2/6 668/2/6
f 669/2/6 670/2/6 671/2/6
f 671/2/6 670/2/6 672/2/6
f 673/2/6 674/2/6 675/2/6
f 675/2/6 674/2/6 676/2/6
f 677/2/6 678/2/6 679/2/6
f 679/2/6 678/2/6 680/2/6
f 680/2/6 678/2/6 681/2/6
f 681/2/6 678/2/6 682/2/6
f 683/2/6 684/2/6 685/2/6
f 685/2/6 684/2/6 686/2/6
f 686/2/6 684/2/6 687/2/6
f 687/2/6 684/2/6 688/2/6
f 689/2/6 690/2/6 691/2/6
f 691/2/6 690/2/6 692/2/6
